<svg xmlns="http://www.w3.org/2000/svg" xmlns:dc="http://purl.org/dc/elements/1.1/" xmlns:ns2="http://creativecommons.org/ns#" xmlns:rdf="http://www.w3.org/1999/02/22-rdf-syntax-ns#" xmlns:xlink="http://www.w3.org/1999/xlink" width="691.5" height="562.5" viewBox="0.0 0.0 691.125 562.5">
<g id="graph0" class="graph" transform="scale(1.5 1.5) rotate(0) translate(4 371)">
<title>G</title>
<polygon fill="white" stroke="none" points="-4,4 -4,-371 456.75,-371 456.75,4 -4,4" />
<g id="clust4" class="cluster">
<title>cluster_legend</title>
</g>

<g id="node1" class="node">
<title>node1</title>
<svg width="157px" height="49px" viewBox="0 0 210.322812 66.269531" version="1.1" preserveAspectRatio="xMinYMin meet" x="203.75" y="-254">
 <metadata>
  <rdf:RDF>
   <ns2:Work>
    <dc:type rdf:resource="http://purl.org/dc/dcmitype/StillImage" />
    <dc:date>2023-10-07T18:28:13.521926</dc:date>
    <dc:format>image/svg+xml</dc:format>
    <dc:creator>
     <ns2:Agent>
      <dc:title>Matplotlib v3.6.3, https://matplotlib.org/</dc:title>
     </ns2:Agent>
    </dc:creator>
   </ns2:Work>
  </rdf:RDF>
 </metadata>
 <defs>
  <style type="text/css">*{stroke-linejoin: round; stroke-linecap: butt}</style>
 </defs>
 <g id="figure_1">
  <g id="patch_1">
   <path d="M 0 66.269531  L 210.322812 66.269531  L 210.322812 0  L 0 0  z " style="fill: #ffffff" />
  </g>
  <g id="axes_1">
   <g id="patch_2">
    <path d="M 26.182813 29.978906  L 210.322812 29.978906  L 210.322812 2.258906  L 26.182813 2.258906  z " style="fill: #ffffff" />
   </g>
   <g id="matplotlib.axis_1">
    <g id="xtick_1">
     <g id="text_1">
      
      <g style="fill: #444443" transform="translate(35.244986 51.136719) scale(0.1 -0.1)">
       <defs>
        <path id="ArialMT-30" d="M 266 2259  Q 266 3072 433 3567  Q 600 4063 929 4331  Q 1259 4600 1759 4600  Q 2128 4600 2406 4451  Q 2684 4303 2865 4023  Q 3047 3744 3150 3342  Q 3253 2941 3253 2259  Q 3253 1453 3087 958  Q 2922 463 2592 192  Q 2263 -78 1759 -78  Q 1097 -78 719 397  Q 266 969 266 2259  z M 844 2259  Q 844 1131 1108 757  Q 1372 384 1759 384  Q 2147 384 2411 759  Q 2675 1134 2675 2259  Q 2675 3391 2411 3762  Q 2147 4134 1753 4134  Q 1366 4134 1134 3806  Q 844 3388 844 2259  z " transform="scale(0.015625)" />
        <path id="ArialMT-2e" d="M 581 0  L 581 641  L 1222 641  L 1222 0  L 581 0  z " transform="scale(0.015625)" />
       </defs>
       <use xlink:href="#ArialMT-30" />
       <use xlink:href="#ArialMT-2e" x="55.615234" />
       <use xlink:href="#ArialMT-30" x="83.398438" />
      </g>
     </g>
    </g>
    <g id="xtick_2">
     <g id="text_2">
      
      <g style="fill: #444443" transform="translate(94.401073 51.136719) scale(0.1 -0.1)">
       <defs>
        <path id="ArialMT-33" d="M 269 1209  L 831 1284  Q 928 806 1161 595  Q 1394 384 1728 384  Q 2125 384 2398 659  Q 2672 934 2672 1341  Q 2672 1728 2419 1979  Q 2166 2231 1775 2231  Q 1616 2231 1378 2169  L 1441 2663  Q 1497 2656 1531 2656  Q 1891 2656 2178 2843  Q 2466 3031 2466 3422  Q 2466 3731 2256 3934  Q 2047 4138 1716 4138  Q 1388 4138 1169 3931  Q 950 3725 888 3313  L 325 3413  Q 428 3978 793 4289  Q 1159 4600 1703 4600  Q 2078 4600 2393 4439  Q 2709 4278 2876 4000  Q 3044 3722 3044 3409  Q 3044 3113 2884 2869  Q 2725 2625 2413 2481  Q 2819 2388 3044 2092  Q 3269 1797 3269 1353  Q 3269 753 2831 336  Q 2394 -81 1725 -81  Q 1122 -81 723 278  Q 325 638 269 1209  z " transform="scale(0.015625)" />
        <path id="ArialMT-35" d="M 266 1200  L 856 1250  Q 922 819 1161 601  Q 1400 384 1738 384  Q 2144 384 2425 690  Q 2706 997 2706 1503  Q 2706 1984 2436 2262  Q 2166 2541 1728 2541  Q 1456 2541 1237 2417  Q 1019 2294 894 2097  L 366 2166  L 809 4519  L 3088 4519  L 3088 3981  L 1259 3981  L 1013 2750  Q 1425 3038 1878 3038  Q 2478 3038 2890 2622  Q 3303 2206 3303 1553  Q 3303 931 2941 478  Q 2500 -78 1738 -78  Q 1113 -78 717 272  Q 322 622 266 1200  z " transform="scale(0.015625)" />
       </defs>
       <use xlink:href="#ArialMT-33" />
       <use xlink:href="#ArialMT-2e" x="55.615234" />
       <use xlink:href="#ArialMT-35" x="83.398438" />
      </g>
     </g>
    </g>
    <g id="xtick_3">
     <g id="text_3">
      
      <g style="fill: #444443" transform="translate(187.360639 51.136719) scale(0.1 -0.1)">
       <defs>
        <path id="ArialMT-39" d="M 350 1059  L 891 1109  Q 959 728 1153 556  Q 1347 384 1650 384  Q 1909 384 2104 503  Q 2300 622 2425 820  Q 2550 1019 2634 1356  Q 2719 1694 2719 2044  Q 2719 2081 2716 2156  Q 2547 1888 2255 1720  Q 1963 1553 1622 1553  Q 1053 1553 659 1965  Q 266 2378 266 3053  Q 266 3750 677 4175  Q 1088 4600 1706 4600  Q 2153 4600 2523 4359  Q 2894 4119 3086 3673  Q 3278 3228 3278 2384  Q 3278 1506 3087 986  Q 2897 466 2520 194  Q 2144 -78 1638 -78  Q 1100 -78 759 220  Q 419 519 350 1059  z M 2653 3081  Q 2653 3566 2395 3850  Q 2138 4134 1775 4134  Q 1400 4134 1122 3828  Q 844 3522 844 3034  Q 844 2597 1108 2323  Q 1372 2050 1759 2050  Q 2150 2050 2401 2323  Q 2653 2597 2653 3081  z " transform="scale(0.015625)" />
       </defs>
       <use xlink:href="#ArialMT-39" />
       <use xlink:href="#ArialMT-2e" x="55.615234" />
       <use xlink:href="#ArialMT-30" x="83.398438" />
      </g>
     </g>
    </g>
    <g id="text_4">
     
     <g style="fill: #444443" transform="translate(114.917656 64.282031) scale(0.1 -0.1)">
      <defs>
       <path id="ArialMT-41" d="M -9 0  L 1750 4581  L 2403 4581  L 4278 0  L 3588 0  L 3053 1388  L 1138 1388  L 634 0  L -9 0  z M 1313 1881  L 2866 1881  L 2388 3150  Q 2169 3728 2063 4100  Q 1975 3659 1816 3225  L 1313 1881  z " transform="scale(0.015625)" />
      </defs>
      <use xlink:href="#ArialMT-41" />
     </g>
    </g>
   </g>
   <g id="matplotlib.axis_2">
    <g id="ytick_1">
     <g id="text_5">
      
      <g style="fill: #444443" transform="translate(11.121875 33.557812) scale(0.1 -0.1)">
       <use xlink:href="#ArialMT-30" />
      </g>
     </g>
    </g>
    <g id="ytick_2">
     <g id="text_6">
      
      <g style="fill: #444443" transform="translate(0 7.157812) scale(0.1 -0.1)">
       <defs>
        <path id="ArialMT-37" d="M 303 3981  L 303 4522  L 3269 4522  L 3269 4084  Q 2831 3619 2401 2847  Q 1972 2075 1738 1259  Q 1569 684 1522 0  L 944 0  Q 953 541 1156 1306  Q 1359 2072 1739 2783  Q 2119 3494 2547 3981  L 303 3981  z " transform="scale(0.015625)" />
        <path id="ArialMT-38" d="M 1131 2484  Q 781 2613 612 2850  Q 444 3088 444 3419  Q 444 3919 803 4259  Q 1163 4600 1759 4600  Q 2359 4600 2725 4251  Q 3091 3903 3091 3403  Q 3091 3084 2923 2848  Q 2756 2613 2416 2484  Q 2838 2347 3058 2040  Q 3278 1734 3278 1309  Q 3278 722 2862 322  Q 2447 -78 1769 -78  Q 1091 -78 675 323  Q 259 725 259 1325  Q 259 1772 486 2073  Q 713 2375 1131 2484  z M 1019 3438  Q 1019 3113 1228 2906  Q 1438 2700 1772 2700  Q 2097 2700 2305 2904  Q 2513 3109 2513 3406  Q 2513 3716 2298 3927  Q 2084 4138 1766 4138  Q 1444 4138 1231 3931  Q 1019 3725 1019 3438  z M 838 1322  Q 838 1081 952 856  Q 1066 631 1291 507  Q 1516 384 1775 384  Q 2178 384 2440 643  Q 2703 903 2703 1303  Q 2703 1709 2433 1975  Q 2163 2241 1756 2241  Q 1359 2241 1098 1978  Q 838 1716 838 1322  z " transform="scale(0.015625)" />
       </defs>
       <use xlink:href="#ArialMT-37" />
       <use xlink:href="#ArialMT-35" x="55.615234" />
       <use xlink:href="#ArialMT-38" x="111.230469" />
      </g>
     </g>
    </g>
   </g>
   <g id="patch_3">
    <path d="M 42.194986 29.978906  L 50.201073 29.978906  L 50.201073 16.674421  L 42.194986 16.674421  z " clip-path="url(#p2e39d9dadb)" style="fill: #2639e9; stroke: #444443; stroke-width: 0.5; stroke-linejoin: miter" />
   </g>
   <g id="patch_4">
    <path d="M 50.201073 29.978906  L 58.20716 29.978906  L 58.20716 29.978906  L 50.201073 29.978906  z " clip-path="url(#p2e39d9dadb)" style="fill: #2639e9; stroke: #444443; stroke-width: 0.5; stroke-linejoin: miter" />
   </g>
   <g id="patch_5">
    <path d="M 58.20716 29.978906  L 66.213247 29.978906  L 66.213247 18.206875  L 58.20716 18.206875  z " clip-path="url(#p2e39d9dadb)" style="fill: #2639e9; stroke: #444443; stroke-width: 0.5; stroke-linejoin: miter" />
   </g>
   <g id="patch_6">
    <path d="M 66.213247 29.978906  L 74.219334 29.978906  L 74.219334 29.978906  L 66.213247 29.978906  z " clip-path="url(#p2e39d9dadb)" style="fill: #2639e9; stroke: #444443; stroke-width: 0.5; stroke-linejoin: miter" />
   </g>
   <g id="patch_7">
    <path d="M 74.219334 29.978906  L 82.225421 29.978906  L 82.225421 18.137218  L 74.219334 18.137218  z " clip-path="url(#p2e39d9dadb)" style="fill: #2639e9; stroke: #444443; stroke-width: 0.5; stroke-linejoin: miter" />
   </g>
   <g id="patch_8">
    <path d="M 82.225421 29.978906  L 90.231508 29.978906  L 90.231508 29.978906  L 82.225421 29.978906  z " clip-path="url(#p2e39d9dadb)" style="fill: #2639e9; stroke: #444443; stroke-width: 0.5; stroke-linejoin: miter" />
   </g>
   <g id="patch_9">
    <path d="M 90.231508 29.978906  L 98.237595 29.978906  L 98.237595 17.057534  L 90.231508 17.057534  z " clip-path="url(#p2e39d9dadb)" style="fill: #2639e9; stroke: #444443; stroke-width: 0.5; stroke-linejoin: miter" />
   </g>
   <g id="patch_10">
    <path d="M 98.237595 29.978906  L 106.243682 29.978906  L 106.243682 29.978906  L 98.237595 29.978906  z " clip-path="url(#p2e39d9dadb)" style="fill: #2639e9; stroke: #444443; stroke-width: 0.5; stroke-linejoin: miter" />
   </g>
   <g id="patch_11">
    <path d="M 106.243682 29.978906  L 114.249769 29.978906  L 114.249769 17.092363  L 106.243682 17.092363  z " clip-path="url(#p2e39d9dadb)" style="fill: #2639e9; stroke: #444443; stroke-width: 0.5; stroke-linejoin: miter" />
   </g>
   <g id="patch_12">
    <path d="M 114.249769 29.978906  L 122.255856 29.978906  L 122.255856 29.978906  L 114.249769 29.978906  z " clip-path="url(#p2e39d9dadb)" style="fill: #2639e9; stroke: #444443; stroke-width: 0.5; stroke-linejoin: miter" />
   </g>
   <g id="patch_13">
    <path d="M 122.255856 29.978906  L 130.261943 29.978906  L 130.261943 16.082336  L 122.255856 16.082336  z " clip-path="url(#p2e39d9dadb)" style="fill: #2639e9; stroke: #444443; stroke-width: 0.5; stroke-linejoin: miter" />
   </g>
   <g id="patch_14">
    <path d="M 130.261943 29.978906  L 138.26803 29.978906  L 138.26803 29.978906  L 130.261943 29.978906  z " clip-path="url(#p2e39d9dadb)" style="fill: #2639e9; stroke: #444443; stroke-width: 0.5; stroke-linejoin: miter" />
   </g>
   <g id="patch_15">
    <path d="M 138.26803 29.978906  L 146.274117 29.978906  L 146.274117 29.978906  L 138.26803 29.978906  z " clip-path="url(#p2e39d9dadb)" style="fill: #2639e9; stroke: #444443; stroke-width: 0.5; stroke-linejoin: miter" />
   </g>
   <g id="patch_16">
    <path d="M 146.274117 29.978906  L 154.280204 29.978906  L 154.280204 29.978906  L 146.274117 29.978906  z " clip-path="url(#p2e39d9dadb)" style="fill: #2639e9; stroke: #444443; stroke-width: 0.5; stroke-linejoin: miter" />
   </g>
   <g id="patch_17">
    <path d="M 154.280204 29.978906  L 162.286291 29.978906  L 162.286291 29.978906  L 154.280204 29.978906  z " clip-path="url(#p2e39d9dadb)" style="fill: #2639e9; stroke: #444443; stroke-width: 0.5; stroke-linejoin: miter" />
   </g>
   <g id="patch_18">
    <path d="M 162.286291 29.978906  L 170.292378 29.978906  L 170.292378 29.978906  L 162.286291 29.978906  z " clip-path="url(#p2e39d9dadb)" style="fill: #2639e9; stroke: #444443; stroke-width: 0.5; stroke-linejoin: miter" />
   </g>
   <g id="patch_19">
    <path d="M 170.292378 29.978906  L 178.298465 29.978906  L 178.298465 29.978906  L 170.292378 29.978906  z " clip-path="url(#p2e39d9dadb)" style="fill: #2639e9; stroke: #444443; stroke-width: 0.5; stroke-linejoin: miter" />
   </g>
   <g id="patch_20">
    <path d="M 178.298465 29.978906  L 186.304552 29.978906  L 186.304552 29.978906  L 178.298465 29.978906  z " clip-path="url(#p2e39d9dadb)" style="fill: #2639e9; stroke: #444443; stroke-width: 0.5; stroke-linejoin: miter" />
   </g>
   <g id="patch_21">
    <path d="M 186.304552 29.978906  L 194.310639 29.978906  L 194.310639 29.978906  L 186.304552 29.978906  z " clip-path="url(#p2e39d9dadb)" style="fill: #2639e9; stroke: #444443; stroke-width: 0.5; stroke-linejoin: miter" />
   </g>
   <g id="patch_22">
    <path d="M 42.194986 16.674421  L 50.201073 16.674421  L 50.201073 4.693418  L 42.194986 4.693418  z " clip-path="url(#p2e39d9dadb)" style="fill: #f76e6c; stroke: #444443; stroke-width: 0.5; stroke-linejoin: miter" />
   </g>
   <g id="patch_23">
    <path d="M 50.201073 29.978906  L 58.20716 29.978906  L 58.20716 29.978906  L 50.201073 29.978906  z " clip-path="url(#p2e39d9dadb)" style="fill: #f76e6c; stroke: #444443; stroke-width: 0.5; stroke-linejoin: miter" />
   </g>
   <g id="patch_24">
    <path d="M 58.20716 18.206875  L 66.213247 18.206875  L 66.213247 7.375212  L 58.20716 7.375212  z " clip-path="url(#p2e39d9dadb)" style="fill: #f76e6c; stroke: #444443; stroke-width: 0.5; stroke-linejoin: miter" />
   </g>
   <g id="patch_25">
    <path d="M 66.213247 29.978906  L 74.219334 29.978906  L 74.219334 29.978906  L 66.213247 29.978906  z " clip-path="url(#p2e39d9dadb)" style="fill: #f76e6c; stroke: #444443; stroke-width: 0.5; stroke-linejoin: miter" />
   </g>
   <g id="patch_26">
    <path d="M 74.219334 18.137218  L 82.225421 18.137218  L 82.225421 6.225872  L 74.219334 6.225872  z " clip-path="url(#p2e39d9dadb)" style="fill: #f76e6c; stroke: #444443; stroke-width: 0.5; stroke-linejoin: miter" />
   </g>
   <g id="patch_27">
    <path d="M 82.225421 29.978906  L 90.231508 29.978906  L 90.231508 29.978906  L 82.225421 29.978906  z " clip-path="url(#p2e39d9dadb)" style="fill: #f76e6c; stroke: #444443; stroke-width: 0.5; stroke-linejoin: miter" />
   </g>
   <g id="patch_28">
    <path d="M 90.231508 17.057534  L 98.237595 17.057534  L 98.237595 5.146189  L 90.231508 5.146189  z " clip-path="url(#p2e39d9dadb)" style="fill: #f76e6c; stroke: #444443; stroke-width: 0.5; stroke-linejoin: miter" />
   </g>
   <g id="patch_29">
    <path d="M 98.237595 29.978906  L 106.243682 29.978906  L 106.243682 29.978906  L 98.237595 29.978906  z " clip-path="url(#p2e39d9dadb)" style="fill: #f76e6c; stroke: #444443; stroke-width: 0.5; stroke-linejoin: miter" />
   </g>
   <g id="patch_30">
    <path d="M 106.243682 17.092363  L 114.249769 17.092363  L 114.249769 5.842758  L 106.243682 5.842758  z " clip-path="url(#p2e39d9dadb)" style="fill: #f76e6c; stroke: #444443; stroke-width: 0.5; stroke-linejoin: miter" />
   </g>
   <g id="patch_31">
    <path d="M 114.249769 29.978906  L 122.255856 29.978906  L 122.255856 29.978906  L 114.249769 29.978906  z " clip-path="url(#p2e39d9dadb)" style="fill: #f76e6c; stroke: #444443; stroke-width: 0.5; stroke-linejoin: miter" />
   </g>
   <g id="patch_32">
    <path d="M 122.255856 16.082336  L 130.261943 16.082336  L 130.261943 3.578906  L 122.255856 3.578906  z " clip-path="url(#p2e39d9dadb)" style="fill: #f76e6c; stroke: #444443; stroke-width: 0.5; stroke-linejoin: miter" />
   </g>
   <g id="patch_33">
    <path d="M 130.261943 29.978906  L 138.26803 29.978906  L 138.26803 29.978906  L 130.261943 29.978906  z " clip-path="url(#p2e39d9dadb)" style="fill: #f76e6c; stroke: #444443; stroke-width: 0.5; stroke-linejoin: miter" />
   </g>
   <g id="patch_34">
    <path d="M 138.26803 29.978906  L 146.274117 29.978906  L 146.274117 29.978906  L 138.26803 29.978906  z " clip-path="url(#p2e39d9dadb)" style="fill: #f76e6c; stroke: #444443; stroke-width: 0.5; stroke-linejoin: miter" />
   </g>
   <g id="patch_35">
    <path d="M 146.274117 29.978906  L 154.280204 29.978906  L 154.280204 29.978906  L 146.274117 29.978906  z " clip-path="url(#p2e39d9dadb)" style="fill: #f76e6c; stroke: #444443; stroke-width: 0.5; stroke-linejoin: miter" />
   </g>
   <g id="patch_36">
    <path d="M 154.280204 29.978906  L 162.286291 29.978906  L 162.286291 29.978906  L 154.280204 29.978906  z " clip-path="url(#p2e39d9dadb)" style="fill: #f76e6c; stroke: #444443; stroke-width: 0.5; stroke-linejoin: miter" />
   </g>
   <g id="patch_37">
    <path d="M 162.286291 29.978906  L 170.292378 29.978906  L 170.292378 29.978906  L 162.286291 29.978906  z " clip-path="url(#p2e39d9dadb)" style="fill: #f76e6c; stroke: #444443; stroke-width: 0.5; stroke-linejoin: miter" />
   </g>
   <g id="patch_38">
    <path d="M 170.292378 29.978906  L 178.298465 29.978906  L 178.298465 29.978906  L 170.292378 29.978906  z " clip-path="url(#p2e39d9dadb)" style="fill: #f76e6c; stroke: #444443; stroke-width: 0.5; stroke-linejoin: miter" />
   </g>
   <g id="patch_39">
    <path d="M 178.298465 29.978906  L 186.304552 29.978906  L 186.304552 29.978906  L 178.298465 29.978906  z " clip-path="url(#p2e39d9dadb)" style="fill: #f76e6c; stroke: #444443; stroke-width: 0.5; stroke-linejoin: miter" />
   </g>
   <g id="patch_40">
    <path d="M 186.304552 29.978906  L 194.310639 29.978906  L 194.310639 29.978906  L 186.304552 29.978906  z " clip-path="url(#p2e39d9dadb)" style="fill: #f76e6c; stroke: #444443; stroke-width: 0.5; stroke-linejoin: miter" />
   </g>
   <g id="patch_41">
    <path d="M 101.351073 30.810506  L 98.036553 39.126506  L 104.665593 39.126506  z " style="fill: #444443; stroke: #ffffff; stroke-linejoin: miter" />
   </g>
   <g id="patch_42">
    <path d="M 26.182813 29.978906  L 26.182813 2.258906  " style="fill: none; stroke: #444443; stroke-width: 0.3; stroke-linejoin: miter; stroke-linecap: square" />
   </g>
   <g id="patch_43">
    <path d="M 26.182812 29.978906  L 210.322812 29.978906  " style="fill: none; stroke: #444443; stroke-width: 0.3; stroke-linejoin: miter; stroke-linecap: square" />
   </g>
  </g>
 </g>
 <defs>
  <clipPath id="p2e39d9dadb">
   <rect x="26.182813" y="2.258906" width="184.14" height="27.72" />
  </clipPath>
 </defs>
</svg></g>

<g id="node2" class="node">
<title>node4</title>
<svg width="163px" height="89px" viewBox="0 0 217.943451 119.450625" version="1.1" preserveAspectRatio="xMinYMin meet" x="200.75" y="-183">
 <metadata>
  <rdf:RDF>
   <ns2:Work>
    <dc:type rdf:resource="http://purl.org/dc/dcmitype/StillImage" />
    <dc:date>2023-10-07T18:28:13.658421</dc:date>
    <dc:format>image/svg+xml</dc:format>
    <dc:creator>
     <ns2:Agent>
      <dc:title>Matplotlib v3.6.3, https://matplotlib.org/</dc:title>
     </ns2:Agent>
    </dc:creator>
   </ns2:Work>
  </rdf:RDF>
 </metadata>
 <defs>
  <style type="text/css">*{stroke-linejoin: round; stroke-linecap: butt}</style>
 </defs>
 <g id="figure_1">
  <g id="patch_1">
   <path d="M 0 119.450625  L 217.943451 119.450625  L 217.943451 -0  L 0 -0  z " style="fill: #ffffff" />
  </g>
  <g id="axes_1">
   <g id="patch_2">
    <path d="M 31.74375 83.16  L 215.88375 83.16  L 215.88375 0  L 31.74375 0  z " style="fill: #ffffff" />
   </g>
   <g id="matplotlib.axis_1">
    <g id="xtick_1">
     <g id="text_1">
      
      <g style="fill: #444443" transform="translate(29.684049 104.317813) scale(0.1 -0.1)">
       <defs>
        <path id="ArialMT-30" d="M 266 2259  Q 266 3072 433 3567  Q 600 4063 929 4331  Q 1259 4600 1759 4600  Q 2128 4600 2406 4451  Q 2684 4303 2865 4023  Q 3047 3744 3150 3342  Q 3253 2941 3253 2259  Q 3253 1453 3087 958  Q 2922 463 2592 192  Q 2263 -78 1759 -78  Q 1097 -78 719 397  Q 266 969 266 2259  z M 844 2259  Q 844 1131 1108 757  Q 1372 384 1759 384  Q 2147 384 2411 759  Q 2675 1134 2675 2259  Q 2675 3391 2411 3762  Q 2147 4134 1753 4134  Q 1366 4134 1134 3806  Q 844 3388 844 2259  z " transform="scale(0.015625)" />
        <path id="ArialMT-2e" d="M 581 0  L 581 641  L 1222 641  L 1222 0  L 581 0  z " transform="scale(0.015625)" />
        <path id="ArialMT-34" d="M 2069 0  L 2069 1097  L 81 1097  L 81 1613  L 2172 4581  L 2631 4581  L 2631 1613  L 3250 1613  L 3250 1097  L 2631 1097  L 2631 0  L 2069 0  z M 2069 1613  L 2069 3678  L 634 1613  L 2069 1613  z " transform="scale(0.015625)" />
        <path id="ArialMT-37" d="M 303 3981  L 303 4522  L 3269 4522  L 3269 4084  Q 2831 3619 2401 2847  Q 1972 2075 1738 1259  Q 1569 684 1522 0  L 944 0  Q 953 541 1156 1306  Q 1359 2072 1739 2783  Q 2119 3494 2547 3981  L 303 3981  z " transform="scale(0.015625)" />
        <path id="ArialMT-38" d="M 1131 2484  Q 781 2613 612 2850  Q 444 3088 444 3419  Q 444 3919 803 4259  Q 1163 4600 1759 4600  Q 2359 4600 2725 4251  Q 3091 3903 3091 3403  Q 3091 3084 2923 2848  Q 2756 2613 2416 2484  Q 2838 2347 3058 2040  Q 3278 1734 3278 1309  Q 3278 722 2862 322  Q 2447 -78 1769 -78  Q 1091 -78 675 323  Q 259 725 259 1325  Q 259 1772 486 2073  Q 713 2375 1131 2484  z M 1019 3438  Q 1019 3113 1228 2906  Q 1438 2700 1772 2700  Q 2097 2700 2305 2904  Q 2513 3109 2513 3406  Q 2513 3716 2298 3927  Q 2084 4138 1766 4138  Q 1444 4138 1231 3931  Q 1019 3725 1019 3438  z M 838 1322  Q 838 1081 952 856  Q 1066 631 1291 507  Q 1516 384 1775 384  Q 2178 384 2440 643  Q 2703 903 2703 1303  Q 2703 1709 2433 1975  Q 2163 2241 1756 2241  Q 1359 2241 1098 1978  Q 838 1716 838 1322  z " transform="scale(0.015625)" />
        <path id="ArialMT-33" d="M 269 1209  L 831 1284  Q 928 806 1161 595  Q 1394 384 1728 384  Q 2125 384 2398 659  Q 2672 934 2672 1341  Q 2672 1728 2419 1979  Q 2166 2231 1775 2231  Q 1616 2231 1378 2169  L 1441 2663  Q 1497 2656 1531 2656  Q 1891 2656 2178 2843  Q 2466 3031 2466 3422  Q 2466 3731 2256 3934  Q 2047 4138 1716 4138  Q 1388 4138 1169 3931  Q 950 3725 888 3313  L 325 3413  Q 428 3978 793 4289  Q 1159 4600 1703 4600  Q 2078 4600 2393 4439  Q 2709 4278 2876 4000  Q 3044 3722 3044 3409  Q 3044 3113 2884 2869  Q 2725 2625 2413 2481  Q 2819 2388 3044 2092  Q 3269 1797 3269 1353  Q 3269 753 2831 336  Q 2394 -81 1725 -81  Q 1122 -81 723 278  Q 325 638 269 1209  z " transform="scale(0.015625)" />
       </defs>
       <use xlink:href="#ArialMT-30" />
       <use xlink:href="#ArialMT-2e" x="55.615234" />
       <use xlink:href="#ArialMT-34" x="83.398438" />
       <use xlink:href="#ArialMT-37" x="139.013672" />
       <use xlink:href="#ArialMT-38" x="194.628906" />
       <use xlink:href="#ArialMT-38" x="250.244141" />
       <use xlink:href="#ArialMT-33" x="305.859375" />
      </g>
     </g>
    </g>
    <g id="xtick_2">
     <g id="text_2">
      
      <g style="fill: #444443" transform="translate(105.741855 104.317813) scale(0.1 -0.1)">
       <defs>
        <path id="ArialMT-36" d="M 3184 3459  L 2625 3416  Q 2550 3747 2413 3897  Q 2184 4138 1850 4138  Q 1581 4138 1378 3988  Q 1113 3794 959 3422  Q 806 3050 800 2363  Q 1003 2672 1297 2822  Q 1591 2972 1913 2972  Q 2475 2972 2870 2558  Q 3266 2144 3266 1488  Q 3266 1056 3080 686  Q 2894 316 2569 119  Q 2244 -78 1831 -78  Q 1128 -78 684 439  Q 241 956 241 2144  Q 241 3472 731 4075  Q 1159 4600 1884 4600  Q 2425 4600 2770 4297  Q 3116 3994 3184 3459  z M 888 1484  Q 888 1194 1011 928  Q 1134 663 1356 523  Q 1578 384 1822 384  Q 2178 384 2434 671  Q 2691 959 2691 1453  Q 2691 1928 2437 2201  Q 2184 2475 1800 2475  Q 1419 2475 1153 2201  Q 888 1928 888 1484  z " transform="scale(0.015625)" />
       </defs>
       <use xlink:href="#ArialMT-30" />
       <use xlink:href="#ArialMT-2e" x="55.615234" />
       <use xlink:href="#ArialMT-34" x="83.398438" />
       <use xlink:href="#ArialMT-38" x="139.013672" />
       <use xlink:href="#ArialMT-36" x="194.628906" />
       <use xlink:href="#ArialMT-33" x="250.244141" />
       <use xlink:href="#ArialMT-33" x="305.859375" />
      </g>
     </g>
    </g>
    <g id="xtick_3">
     <g id="text_3">
      
      <g style="fill: #444443" transform="translate(181.799701 104.317813) scale(0.1 -0.1)">
       <defs>
        <path id="ArialMT-39" d="M 350 1059  L 891 1109  Q 959 728 1153 556  Q 1347 384 1650 384  Q 1909 384 2104 503  Q 2300 622 2425 820  Q 2550 1019 2634 1356  Q 2719 1694 2719 2044  Q 2719 2081 2716 2156  Q 2547 1888 2255 1720  Q 1963 1553 1622 1553  Q 1053 1553 659 1965  Q 266 2378 266 3053  Q 266 3750 677 4175  Q 1088 4600 1706 4600  Q 2153 4600 2523 4359  Q 2894 4119 3086 3673  Q 3278 3228 3278 2384  Q 3278 1506 3087 986  Q 2897 466 2520 194  Q 2144 -78 1638 -78  Q 1100 -78 759 220  Q 419 519 350 1059  z M 2653 3081  Q 2653 3566 2395 3850  Q 2138 4134 1775 4134  Q 1400 4134 1122 3828  Q 844 3522 844 3034  Q 844 2597 1108 2323  Q 1372 2050 1759 2050  Q 2150 2050 2401 2323  Q 2653 2597 2653 3081  z " transform="scale(0.015625)" />
        <path id="ArialMT-32" d="M 3222 541  L 3222 0  L 194 0  Q 188 203 259 391  Q 375 700 629 1000  Q 884 1300 1366 1694  Q 2113 2306 2375 2664  Q 2638 3022 2638 3341  Q 2638 3675 2398 3904  Q 2159 4134 1775 4134  Q 1369 4134 1125 3890  Q 881 3647 878 3216  L 300 3275  Q 359 3922 746 4261  Q 1134 4600 1788 4600  Q 2447 4600 2831 4234  Q 3216 3869 3216 3328  Q 3216 3053 3103 2787  Q 2991 2522 2730 2228  Q 2469 1934 1863 1422  Q 1356 997 1212 845  Q 1069 694 975 541  L 3222 541  z " transform="scale(0.015625)" />
       </defs>
       <use xlink:href="#ArialMT-30" />
       <use xlink:href="#ArialMT-2e" x="55.615234" />
       <use xlink:href="#ArialMT-34" x="83.398438" />
       <use xlink:href="#ArialMT-39" x="139.013672" />
       <use xlink:href="#ArialMT-33" x="194.628906" />
       <use xlink:href="#ArialMT-38" x="250.244141" />
       <use xlink:href="#ArialMT-32" x="305.859375" />
      </g>
     </g>
    </g>
    <g id="text_4">
     
     <g style="fill: #444443" transform="translate(120.202813 117.463125) scale(0.1 -0.1)">
      <defs>
       <path id="ArialMT-43" d="M 3763 1606  L 4369 1453  Q 4178 706 3683 314  Q 3188 -78 2472 -78  Q 1731 -78 1267 223  Q 803 525 561 1097  Q 319 1669 319 2325  Q 319 3041 592 3573  Q 866 4106 1370 4382  Q 1875 4659 2481 4659  Q 3169 4659 3637 4309  Q 4106 3959 4291 3325  L 3694 3184  Q 3534 3684 3231 3912  Q 2928 4141 2469 4141  Q 1941 4141 1586 3887  Q 1231 3634 1087 3207  Q 944 2781 944 2328  Q 944 1744 1114 1308  Q 1284 872 1643 656  Q 2003 441 2422 441  Q 2931 441 3284 734  Q 3638 1028 3763 1606  z " transform="scale(0.015625)" />
      </defs>
      <use xlink:href="#ArialMT-43" />
     </g>
    </g>
   </g>
   <g id="matplotlib.axis_2">
    <g id="ytick_1">
     <g id="text_5">
      
      <g style="fill: #444443" transform="translate(16.682813 86.738906) scale(0.1 -0.1)">
       <use xlink:href="#ArialMT-30" />
      </g>
     </g>
    </g>
    <g id="ytick_2">
     <g id="text_6">
      
      <g style="fill: #444443" transform="translate(0 7.538906) scale(0.1 -0.1)">
       <defs>
        <path id="ArialMT-31" d="M 2384 0  L 1822 0  L 1822 3584  Q 1619 3391 1289 3197  Q 959 3003 697 2906  L 697 3450  Q 1169 3672 1522 3987  Q 1875 4303 2022 4600  L 2384 4600  L 2384 0  z " transform="scale(0.015625)" />
       </defs>
       <use xlink:href="#ArialMT-31" />
       <use xlink:href="#ArialMT-34" x="55.615234" />
       <use xlink:href="#ArialMT-30" x="111.230469" />
       <use xlink:href="#ArialMT-34" x="166.845703" />
      </g>
     </g>
    </g>
   </g>
   <g id="patch_3">
    <path d="M 47.755924 83.16  L 55.762011 83.16  L 55.762011 42.657436  L 47.755924 42.657436  z " clip-path="url(#p9910b2901e)" style="fill: #2639e9; stroke: #444443; stroke-width: 0.5; stroke-linejoin: miter" />
   </g>
   <g id="patch_4">
    <path d="M 55.762011 83.16  L 63.768098 83.16  L 63.768098 83.16  L 55.762011 83.16  z " clip-path="url(#p9910b2901e)" style="fill: #2639e9; stroke: #444443; stroke-width: 0.5; stroke-linejoin: miter" />
   </g>
   <g id="patch_5">
    <path d="M 63.768098 83.16  L 71.774185 83.16  L 71.774185 83.16  L 63.768098 83.16  z " clip-path="url(#p9910b2901e)" style="fill: #2639e9; stroke: #444443; stroke-width: 0.5; stroke-linejoin: miter" />
   </g>
   <g id="patch_6">
    <path d="M 71.774185 83.16  L 79.780272 83.16  L 79.780272 83.16  L 71.774185 83.16  z " clip-path="url(#p9910b2901e)" style="fill: #2639e9; stroke: #444443; stroke-width: 0.5; stroke-linejoin: miter" />
   </g>
   <g id="patch_7">
    <path d="M 79.780272 83.16  L 87.786359 83.16  L 87.786359 83.16  L 79.780272 83.16  z " clip-path="url(#p9910b2901e)" style="fill: #2639e9; stroke: #444443; stroke-width: 0.5; stroke-linejoin: miter" />
   </g>
   <g id="patch_8">
    <path d="M 87.786359 83.16  L 95.792446 83.16  L 95.792446 83.16  L 87.786359 83.16  z " clip-path="url(#p9910b2901e)" style="fill: #2639e9; stroke: #444443; stroke-width: 0.5; stroke-linejoin: miter" />
   </g>
   <g id="patch_9">
    <path d="M 95.792446 83.16  L 103.798533 83.16  L 103.798533 83.16  L 95.792446 83.16  z " clip-path="url(#p9910b2901e)" style="fill: #2639e9; stroke: #444443; stroke-width: 0.5; stroke-linejoin: miter" />
   </g>
   <g id="patch_10">
    <path d="M 103.798533 83.16  L 111.80462 83.16  L 111.80462 83.16  L 103.798533 83.16  z " clip-path="url(#p9910b2901e)" style="fill: #2639e9; stroke: #444443; stroke-width: 0.5; stroke-linejoin: miter" />
   </g>
   <g id="patch_11">
    <path d="M 111.80462 83.16  L 119.810707 83.16  L 119.810707 83.16  L 111.80462 83.16  z " clip-path="url(#p9910b2901e)" style="fill: #2639e9; stroke: #444443; stroke-width: 0.5; stroke-linejoin: miter" />
   </g>
   <g id="patch_12">
    <path d="M 119.810707 83.16  L 127.816793 83.16  L 127.816793 83.16  L 119.810707 83.16  z " clip-path="url(#p9910b2901e)" style="fill: #2639e9; stroke: #444443; stroke-width: 0.5; stroke-linejoin: miter" />
   </g>
   <g id="patch_13">
    <path d="M 127.816793 83.16  L 135.82288 83.16  L 135.82288 83.16  L 127.816793 83.16  z " clip-path="url(#p9910b2901e)" style="fill: #2639e9; stroke: #444443; stroke-width: 0.5; stroke-linejoin: miter" />
   </g>
   <g id="patch_14">
    <path d="M 135.82288 83.16  L 143.828967 83.16  L 143.828967 83.16  L 135.82288 83.16  z " clip-path="url(#p9910b2901e)" style="fill: #2639e9; stroke: #444443; stroke-width: 0.5; stroke-linejoin: miter" />
   </g>
   <g id="patch_15">
    <path d="M 143.828967 83.16  L 151.835054 83.16  L 151.835054 83.16  L 143.828967 83.16  z " clip-path="url(#p9910b2901e)" style="fill: #2639e9; stroke: #444443; stroke-width: 0.5; stroke-linejoin: miter" />
   </g>
   <g id="patch_16">
    <path d="M 151.835054 83.16  L 159.841141 83.16  L 159.841141 83.16  L 151.835054 83.16  z " clip-path="url(#p9910b2901e)" style="fill: #2639e9; stroke: #444443; stroke-width: 0.5; stroke-linejoin: miter" />
   </g>
   <g id="patch_17">
    <path d="M 159.841141 83.16  L 167.847228 83.16  L 167.847228 83.16  L 159.841141 83.16  z " clip-path="url(#p9910b2901e)" style="fill: #2639e9; stroke: #444443; stroke-width: 0.5; stroke-linejoin: miter" />
   </g>
   <g id="patch_18">
    <path d="M 167.847228 83.16  L 175.853315 83.16  L 175.853315 83.16  L 167.847228 83.16  z " clip-path="url(#p9910b2901e)" style="fill: #2639e9; stroke: #444443; stroke-width: 0.5; stroke-linejoin: miter" />
   </g>
   <g id="patch_19">
    <path d="M 175.853315 83.16  L 183.859402 83.16  L 183.859402 83.16  L 175.853315 83.16  z " clip-path="url(#p9910b2901e)" style="fill: #2639e9; stroke: #444443; stroke-width: 0.5; stroke-linejoin: miter" />
   </g>
   <g id="patch_20">
    <path d="M 183.859402 83.16  L 191.865489 83.16  L 191.865489 83.16  L 183.859402 83.16  z " clip-path="url(#p9910b2901e)" style="fill: #2639e9; stroke: #444443; stroke-width: 0.5; stroke-linejoin: miter" />
   </g>
   <g id="patch_21">
    <path d="M 191.865489 83.16  L 199.871576 83.16  L 199.871576 44.913846  L 191.865489 44.913846  z " clip-path="url(#p9910b2901e)" style="fill: #2639e9; stroke: #444443; stroke-width: 0.5; stroke-linejoin: miter" />
   </g>
   <g id="patch_22">
    <path d="M 47.755924 42.657436  L 55.762011 42.657436  L 55.762011 3.96  L 47.755924 3.96  z " clip-path="url(#p9910b2901e)" style="fill: #f76e6c; stroke: #444443; stroke-width: 0.5; stroke-linejoin: miter" />
   </g>
   <g id="patch_23">
    <path d="M 55.762011 83.16  L 63.768098 83.16  L 63.768098 83.16  L 55.762011 83.16  z " clip-path="url(#p9910b2901e)" style="fill: #f76e6c; stroke: #444443; stroke-width: 0.5; stroke-linejoin: miter" />
   </g>
   <g id="patch_24">
    <path d="M 63.768098 83.16  L 71.774185 83.16  L 71.774185 83.16  L 63.768098 83.16  z " clip-path="url(#p9910b2901e)" style="fill: #f76e6c; stroke: #444443; stroke-width: 0.5; stroke-linejoin: miter" />
   </g>
   <g id="patch_25">
    <path d="M 71.774185 83.16  L 79.780272 83.16  L 79.780272 83.16  L 71.774185 83.16  z " clip-path="url(#p9910b2901e)" style="fill: #f76e6c; stroke: #444443; stroke-width: 0.5; stroke-linejoin: miter" />
   </g>
   <g id="patch_26">
    <path d="M 79.780272 83.16  L 87.786359 83.16  L 87.786359 83.16  L 79.780272 83.16  z " clip-path="url(#p9910b2901e)" style="fill: #f76e6c; stroke: #444443; stroke-width: 0.5; stroke-linejoin: miter" />
   </g>
   <g id="patch_27">
    <path d="M 87.786359 83.16  L 95.792446 83.16  L 95.792446 83.16  L 87.786359 83.16  z " clip-path="url(#p9910b2901e)" style="fill: #f76e6c; stroke: #444443; stroke-width: 0.5; stroke-linejoin: miter" />
   </g>
   <g id="patch_28">
    <path d="M 95.792446 83.16  L 103.798533 83.16  L 103.798533 83.16  L 95.792446 83.16  z " clip-path="url(#p9910b2901e)" style="fill: #f76e6c; stroke: #444443; stroke-width: 0.5; stroke-linejoin: miter" />
   </g>
   <g id="patch_29">
    <path d="M 103.798533 83.16  L 111.80462 83.16  L 111.80462 83.16  L 103.798533 83.16  z " clip-path="url(#p9910b2901e)" style="fill: #f76e6c; stroke: #444443; stroke-width: 0.5; stroke-linejoin: miter" />
   </g>
   <g id="patch_30">
    <path d="M 111.80462 83.16  L 119.810707 83.16  L 119.810707 83.16  L 111.80462 83.16  z " clip-path="url(#p9910b2901e)" style="fill: #f76e6c; stroke: #444443; stroke-width: 0.5; stroke-linejoin: miter" />
   </g>
   <g id="patch_31">
    <path d="M 119.810707 83.16  L 127.816793 83.16  L 127.816793 83.16  L 119.810707 83.16  z " clip-path="url(#p9910b2901e)" style="fill: #f76e6c; stroke: #444443; stroke-width: 0.5; stroke-linejoin: miter" />
   </g>
   <g id="patch_32">
    <path d="M 127.816793 83.16  L 135.82288 83.16  L 135.82288 83.16  L 127.816793 83.16  z " clip-path="url(#p9910b2901e)" style="fill: #f76e6c; stroke: #444443; stroke-width: 0.5; stroke-linejoin: miter" />
   </g>
   <g id="patch_33">
    <path d="M 135.82288 83.16  L 143.828967 83.16  L 143.828967 83.16  L 135.82288 83.16  z " clip-path="url(#p9910b2901e)" style="fill: #f76e6c; stroke: #444443; stroke-width: 0.5; stroke-linejoin: miter" />
   </g>
   <g id="patch_34">
    <path d="M 143.828967 83.16  L 151.835054 83.16  L 151.835054 83.16  L 143.828967 83.16  z " clip-path="url(#p9910b2901e)" style="fill: #f76e6c; stroke: #444443; stroke-width: 0.5; stroke-linejoin: miter" />
   </g>
   <g id="patch_35">
    <path d="M 151.835054 83.16  L 159.841141 83.16  L 159.841141 83.16  L 151.835054 83.16  z " clip-path="url(#p9910b2901e)" style="fill: #f76e6c; stroke: #444443; stroke-width: 0.5; stroke-linejoin: miter" />
   </g>
   <g id="patch_36">
    <path d="M 159.841141 83.16  L 167.847228 83.16  L 167.847228 83.16  L 159.841141 83.16  z " clip-path="url(#p9910b2901e)" style="fill: #f76e6c; stroke: #444443; stroke-width: 0.5; stroke-linejoin: miter" />
   </g>
   <g id="patch_37">
    <path d="M 167.847228 83.16  L 175.853315 83.16  L 175.853315 83.16  L 167.847228 83.16  z " clip-path="url(#p9910b2901e)" style="fill: #f76e6c; stroke: #444443; stroke-width: 0.5; stroke-linejoin: miter" />
   </g>
   <g id="patch_38">
    <path d="M 175.853315 83.16  L 183.859402 83.16  L 183.859402 83.16  L 175.853315 83.16  z " clip-path="url(#p9910b2901e)" style="fill: #f76e6c; stroke: #444443; stroke-width: 0.5; stroke-linejoin: miter" />
   </g>
   <g id="patch_39">
    <path d="M 183.859402 83.16  L 191.865489 83.16  L 191.865489 83.16  L 183.859402 83.16  z " clip-path="url(#p9910b2901e)" style="fill: #f76e6c; stroke: #444443; stroke-width: 0.5; stroke-linejoin: miter" />
   </g>
   <g id="patch_40">
    <path d="M 191.865489 44.913846  L 199.871576 44.913846  L 199.871576 5.595897  L 191.865489 5.595897  z " clip-path="url(#p9910b2901e)" style="fill: #f76e6c; stroke: #444443; stroke-width: 0.5; stroke-linejoin: miter" />
   </g>
   <g id="patch_41">
    <path d="M 123.81373 83.9916  L 120.49921 92.3076  L 127.12825 92.3076  z " style="fill: #444443; stroke: #ffffff; stroke-linejoin: miter" />
   </g>
   <g id="patch_42">
    <path d="M 31.74375 83.16  L 31.74375 0  " style="fill: none; stroke: #444443; stroke-width: 0.3; stroke-linejoin: miter; stroke-linecap: square" />
   </g>
   <g id="patch_43">
    <path d="M 31.74375 83.16  L 215.88375 83.16  " style="fill: none; stroke: #444443; stroke-width: 0.3; stroke-linejoin: miter; stroke-linecap: square" />
   </g>
  </g>
 </g>
 <defs>
  <clipPath id="p9910b2901e">
   <rect x="31.74375" y="0" width="184.14" height="83.16" />
  </clipPath>
 </defs>
</svg></g>


<g id="node4" class="node">
<title>leaf2</title>
<polygon fill="none" stroke="#444443" stroke-width="0" points="452.75,-367 384.75,-367 384.75,-284 452.75,-284 452.75,-367" />
<svg width="60px" height="75px" viewBox="0 0 80.07999 101.033167" version="1.1" preserveAspectRatio="xMinYMin meet" x="388.75" y="-363">
 <metadata>
  <rdf:RDF>
   <ns2:Work>
    <dc:type rdf:resource="http://purl.org/dc/dcmitype/StillImage" />
    <dc:date>2023-10-07T18:28:13.886534</dc:date>
    <dc:format>image/svg+xml</dc:format>
    <dc:creator>
     <ns2:Agent>
      <dc:title>Matplotlib v3.6.3, https://matplotlib.org/</dc:title>
     </ns2:Agent>
    </dc:creator>
   </ns2:Work>
  </rdf:RDF>
 </metadata>
 <defs>
  <style type="text/css">*{stroke-linejoin: round; stroke-linecap: butt}</style>
 </defs>
 <g id="figure_1">
  <g id="patch_1">
   <path d="M 0 101.033167  L 80.07999 101.033167  L 80.07999 0  L 0 0  z " style="fill: #ffffff" />
  </g>
  <g id="axes_1">
   <g id="patch_2">
    <path d="M 80.07999 40.039998  C 80.07999 34.606193 78.973862 29.228826 76.829137 24.236192  C 74.684412 19.243558 71.545641 14.73937 67.604452 10.998613  C 63.663262 7.257856 59.001524 4.358237 53.903842 2.476782  C 48.806159 0.595326 43.378427 -0.228882 37.952015 0.054476  C 32.525603 0.337834 27.213234 1.722872 22.339235 4.125031  C 17.465236 6.52719 13.130854 9.896571 9.600708 14.027468  C 6.070563 18.158365 3.417986 22.964968 1.804921 28.153827  C 0.191855 33.342686 -0.34819 38.806013 0.217754 44.210266  L 40.03999 40.039998  L 80.07999 40.039998  z " style="fill: #2639e9; stroke: #2639e9; stroke-width: 0.5; stroke-linejoin: miter" />
   </g>
   <g id="patch_3">
    <path d="M 0.217754 44.210266  C 1.285774 54.408869 6.231862 63.817387 14.02746 70.47928  C 21.823059 77.141173 31.887544 80.560257 42.127965 80.02552  C 52.368386 79.490783 62.022028 75.042052 69.081376 67.60446  C 76.140723 60.166867 80.07999 50.294371 80.07999 40.039998  L 40.03999 40.039998  L 0.217754 44.210266  z " style="fill: #f76e6c; stroke: #2639e9; stroke-width: 0.5; stroke-linejoin: miter" />
   </g>
   <g id="text_1">
    
    <g style="fill: #444443" transform="translate(24.8996 89.725229) scale(0.09 -0.09)">
     <defs>
      <path id="ArialMT-6e" d="M 422 0  L 422 3319  L 928 3319  L 928 2847  Q 1294 3394 1984 3394  Q 2284 3394 2536 3286  Q 2788 3178 2913 3003  Q 3038 2828 3088 2588  Q 3119 2431 3119 2041  L 3119 0  L 2556 0  L 2556 2019  Q 2556 2363 2490 2533  Q 2425 2703 2258 2804  Q 2091 2906 1866 2906  Q 1506 2906 1245 2678  Q 984 2450 984 1813  L 984 0  L 422 0  z " transform="scale(0.015625)" />
      <path id="ArialMT-3d" d="M 3381 2694  L 356 2694  L 356 3219  L 3381 3219  L 3381 2694  z M 3381 1303  L 356 1303  L 356 1828  L 3381 1828  L 3381 1303  z " transform="scale(0.015625)" />
      <path id="ArialMT-32" d="M 3222 541  L 3222 0  L 194 0  Q 188 203 259 391  Q 375 700 629 1000  Q 884 1300 1366 1694  Q 2113 2306 2375 2664  Q 2638 3022 2638 3341  Q 2638 3675 2398 3904  Q 2159 4134 1775 4134  Q 1369 4134 1125 3890  Q 881 3647 878 3216  L 300 3275  Q 359 3922 746 4261  Q 1134 4600 1788 4600  Q 2447 4600 2831 4234  Q 3216 3869 3216 3328  Q 3216 3053 3103 2787  Q 2991 2522 2730 2228  Q 2469 1934 1863 1422  Q 1356 997 1212 845  Q 1069 694 975 541  L 3222 541  z " transform="scale(0.015625)" />
      <path id="ArialMT-37" d="M 303 3981  L 303 4522  L 3269 4522  L 3269 4084  Q 2831 3619 2401 2847  Q 1972 2075 1738 1259  Q 1569 684 1522 0  L 944 0  Q 953 541 1156 1306  Q 1359 2072 1739 2783  Q 2119 3494 2547 3981  L 303 3981  z " transform="scale(0.015625)" />
      <path id="ArialMT-30" d="M 266 2259  Q 266 3072 433 3567  Q 600 4063 929 4331  Q 1259 4600 1759 4600  Q 2128 4600 2406 4451  Q 2684 4303 2865 4023  Q 3047 3744 3150 3342  Q 3253 2941 3253 2259  Q 3253 1453 3087 958  Q 2922 463 2592 192  Q 2263 -78 1759 -78  Q 1097 -78 719 397  Q 266 969 266 2259  z M 844 2259  Q 844 1131 1108 757  Q 1372 384 1759 384  Q 2147 384 2411 759  Q 2675 1134 2675 2259  Q 2675 3391 2411 3762  Q 2147 4134 1753 4134  Q 1366 4134 1134 3806  Q 844 3388 844 2259  z " transform="scale(0.015625)" />
     </defs>
     <use xlink:href="#ArialMT-6e" />
     <use xlink:href="#ArialMT-3d" x="55.615234" />
     <use xlink:href="#ArialMT-32" x="114.013672" />
     <use xlink:href="#ArialMT-37" x="169.628906" />
     <use xlink:href="#ArialMT-37" x="225.244141" />
     <use xlink:href="#ArialMT-30" x="280.859375" />
    </g>
    
    <g style="fill: #444443" transform="translate(24.782881 99.244417) scale(0.09 -0.09)">
     <defs>
      <path id="ArialMT-70" d="M 422 -1272  L 422 3319  L 934 3319  L 934 2888  Q 1116 3141 1344 3267  Q 1572 3394 1897 3394  Q 2322 3394 2647 3175  Q 2972 2956 3137 2557  Q 3303 2159 3303 1684  Q 3303 1175 3120 767  Q 2938 359 2589 142  Q 2241 -75 1856 -75  Q 1575 -75 1351 44  Q 1128 163 984 344  L 984 -1272  L 422 -1272  z M 931 1641  Q 931 1000 1190 694  Q 1450 388 1819 388  Q 2194 388 2461 705  Q 2728 1022 2728 1688  Q 2728 2322 2467 2637  Q 2206 2953 1844 2953  Q 1484 2953 1207 2617  Q 931 2281 931 1641  z " transform="scale(0.015625)" />
      <path id="ArialMT-6f" d="M 213 1659  Q 213 2581 725 3025  Q 1153 3394 1769 3394  Q 2453 3394 2887 2945  Q 3322 2497 3322 1706  Q 3322 1066 3130 698  Q 2938 331 2570 128  Q 2203 -75 1769 -75  Q 1072 -75 642 372  Q 213 819 213 1659  z M 791 1659  Q 791 1022 1069 705  Q 1347 388 1769 388  Q 2188 388 2466 706  Q 2744 1025 2744 1678  Q 2744 2294 2464 2611  Q 2184 2928 1769 2928  Q 1347 2928 1069 2612  Q 791 2297 791 1659  z " transform="scale(0.015625)" />
      <path id="ArialMT-73" d="M 197 991  L 753 1078  Q 800 744 1014 566  Q 1228 388 1613 388  Q 2000 388 2187 545  Q 2375 703 2375 916  Q 2375 1106 2209 1216  Q 2094 1291 1634 1406  Q 1016 1563 777 1677  Q 538 1791 414 1992  Q 291 2194 291 2438  Q 291 2659 392 2848  Q 494 3038 669 3163  Q 800 3259 1026 3326  Q 1253 3394 1513 3394  Q 1903 3394 2198 3281  Q 2494 3169 2634 2976  Q 2775 2784 2828 2463  L 2278 2388  Q 2241 2644 2061 2787  Q 1881 2931 1553 2931  Q 1166 2931 1000 2803  Q 834 2675 834 2503  Q 834 2394 903 2306  Q 972 2216 1119 2156  Q 1203 2125 1616 2013  Q 2213 1853 2448 1751  Q 2684 1650 2818 1456  Q 2953 1263 2953 975  Q 2953 694 2789 445  Q 2625 197 2315 61  Q 2006 -75 1616 -75  Q 969 -75 630 194  Q 291 463 197 991  z " transform="scale(0.015625)" />
      <path id="ArialMT-69" d="M 425 3934  L 425 4581  L 988 4581  L 988 3934  L 425 3934  z M 425 0  L 425 3319  L 988 3319  L 988 0  L 425 0  z " transform="scale(0.015625)" />
      <path id="ArialMT-74" d="M 1650 503  L 1731 6  Q 1494 -44 1306 -44  Q 1000 -44 831 53  Q 663 150 594 308  Q 525 466 525 972  L 525 2881  L 113 2881  L 113 3319  L 525 3319  L 525 4141  L 1084 4478  L 1084 3319  L 1650 3319  L 1650 2881  L 1084 2881  L 1084 941  Q 1084 700 1114 631  Q 1144 563 1211 522  Q 1278 481 1403 481  Q 1497 481 1650 503  z " transform="scale(0.015625)" />
      <path id="ArialMT-76" d="M 1344 0  L 81 3319  L 675 3319  L 1388 1331  Q 1503 1009 1600 663  Q 1675 925 1809 1294  L 2547 3319  L 3125 3319  L 1869 0  L 1344 0  z " transform="scale(0.015625)" />
      <path id="ArialMT-65" d="M 2694 1069  L 3275 997  Q 3138 488 2766 206  Q 2394 -75 1816 -75  Q 1088 -75 661 373  Q 234 822 234 1631  Q 234 2469 665 2931  Q 1097 3394 1784 3394  Q 2450 3394 2872 2941  Q 3294 2488 3294 1666  Q 3294 1616 3291 1516  L 816 1516  Q 847 969 1125 678  Q 1403 388 1819 388  Q 2128 388 2347 550  Q 2566 713 2694 1069  z M 847 1978  L 2700 1978  Q 2663 2397 2488 2606  Q 2219 2931 1791 2931  Q 1403 2931 1139 2672  Q 875 2413 847 1978  z " transform="scale(0.015625)" />
     </defs>
     <use xlink:href="#ArialMT-70" />
     <use xlink:href="#ArialMT-6f" x="55.615234" />
     <use xlink:href="#ArialMT-73" x="111.230469" />
     <use xlink:href="#ArialMT-69" x="161.230469" />
     <use xlink:href="#ArialMT-74" x="183.447266" />
     <use xlink:href="#ArialMT-69" x="211.230469" />
     <use xlink:href="#ArialMT-76" x="233.447266" />
     <use xlink:href="#ArialMT-65" x="283.447266" />
    </g>
   </g>
  </g>
 </g>
</svg></g>

<g id="edge1" class="edge">
<title>node1-&gt;leaf2</title>
<path fill="none" stroke="#444443" stroke-width="0.3" d="M322.88,-257.78C341.33,-270.95 363.14,-286.52 381.19,-299.41" />
<polygon fill="#444443" stroke="#444443" stroke-width="0.3" points="380.31,-300.5 384.38,-301.68 381.94,-298.22 380.31,-300.5" />
</g>

<g id="node5" class="node">
<title>leaf3</title>
<polygon fill="none" stroke="#444443" stroke-width="0" points="452.75,-270 384.75,-270 384.75,-187 452.75,-187 452.75,-270" />
<svg width="60px" height="75px" viewBox="0 0 80.079975 101.03316" version="1.1" preserveAspectRatio="xMinYMin meet" x="388.75" y="-266">
 <metadata>
  <rdf:RDF>
   <ns2:Work>
    <dc:type rdf:resource="http://purl.org/dc/dcmitype/StillImage" />
    <dc:date>2023-10-07T18:28:13.932981</dc:date>
    <dc:format>image/svg+xml</dc:format>
    <dc:creator>
     <ns2:Agent>
      <dc:title>Matplotlib v3.6.3, https://matplotlib.org/</dc:title>
     </ns2:Agent>
    </dc:creator>
   </ns2:Work>
  </rdf:RDF>
 </metadata>
 <defs>
  <style type="text/css">*{stroke-linejoin: round; stroke-linecap: butt}</style>
 </defs>
 <g id="figure_1">
  <g id="patch_1">
   <path d="M 0 101.03316  L 80.079975 101.03316  L 80.079975 0  L 0 0  z " style="fill: #ffffff" />
  </g>
  <g id="axes_1">
   <g id="patch_2">
    <path d="M 80.079975 40.039991  C 80.079975 34.464535 78.915426 28.950056 76.661108 23.850668  C 74.406791 18.751279 71.112016 14.178522 66.988357 10.426036  C 62.864698 6.673551 58.002354 3.823417 52.713561 2.058656  C 47.424768 0.293895 41.82521 -0.346891 36.274465 0.177446  C 30.723719 0.701782 25.343198 2.379773 20.478414 5.103665  C 15.61363 7.827556 11.370992 11.537769 8.022941 15.996049  C 4.674891 20.45433 2.294661 25.563162 1.035099 30.99448  C -0.224462 36.425798 -0.335805 42.060801 0.70822 47.537635  L 40.039975 40.039991  L 80.079975 40.039991  z " style="fill: #2639e9; stroke: #2639e9; stroke-width: 0.5; stroke-linejoin: miter" />
   </g>
   <g id="patch_3">
    <path d="M 0.70822 47.537635  C 2.574094 57.32579 8.028232 66.073418 15.996035 72.057026  C 23.963838 78.040634 33.885242 80.839627 43.805489 79.902536  C 53.725737 78.965445 62.947524 74.358139 69.653934 66.988369  C 76.360344 59.618598 80.079977 50.004393 80.079975 40.039984  L 40.039975 40.039991  L 0.70822 47.537635  z " style="fill: #f76e6c; stroke: #2639e9; stroke-width: 0.5; stroke-linejoin: miter" />
   </g>
   <g id="text_1">
    
    <g style="fill: #444443" transform="translate(24.899585 89.725223) scale(0.09 -0.09)">
     <defs>
      <path id="ArialMT-6e" d="M 422 0  L 422 3319  L 928 3319  L 928 2847  Q 1294 3394 1984 3394  Q 2284 3394 2536 3286  Q 2788 3178 2913 3003  Q 3038 2828 3088 2588  Q 3119 2431 3119 2041  L 3119 0  L 2556 0  L 2556 2019  Q 2556 2363 2490 2533  Q 2425 2703 2258 2804  Q 2091 2906 1866 2906  Q 1506 2906 1245 2678  Q 984 2450 984 1813  L 984 0  L 422 0  z " transform="scale(0.015625)" />
      <path id="ArialMT-3d" d="M 3381 2694  L 356 2694  L 356 3219  L 3381 3219  L 3381 2694  z M 3381 1303  L 356 1303  L 356 1828  L 3381 1828  L 3381 1303  z " transform="scale(0.015625)" />
      <path id="ArialMT-31" d="M 2384 0  L 1822 0  L 1822 3584  Q 1619 3391 1289 3197  Q 959 3003 697 2906  L 697 3450  Q 1169 3672 1522 3987  Q 1875 4303 2022 4600  L 2384 4600  L 2384 0  z " transform="scale(0.015625)" />
      <path id="ArialMT-34" d="M 2069 0  L 2069 1097  L 81 1097  L 81 1613  L 2172 4581  L 2631 4581  L 2631 1613  L 3250 1613  L 3250 1097  L 2631 1097  L 2631 0  L 2069 0  z M 2069 1613  L 2069 3678  L 634 1613  L 2069 1613  z " transform="scale(0.015625)" />
      <path id="ArialMT-35" d="M 266 1200  L 856 1250  Q 922 819 1161 601  Q 1400 384 1738 384  Q 2144 384 2425 690  Q 2706 997 2706 1503  Q 2706 1984 2436 2262  Q 2166 2541 1728 2541  Q 1456 2541 1237 2417  Q 1019 2294 894 2097  L 366 2166  L 809 4519  L 3088 4519  L 3088 3981  L 1259 3981  L 1013 2750  Q 1425 3038 1878 3038  Q 2478 3038 2890 2622  Q 3303 2206 3303 1553  Q 3303 931 2941 478  Q 2500 -78 1738 -78  Q 1113 -78 717 272  Q 322 622 266 1200  z " transform="scale(0.015625)" />
     </defs>
     <use xlink:href="#ArialMT-6e" />
     <use xlink:href="#ArialMT-3d" x="55.615234" />
     <use xlink:href="#ArialMT-31" x="114.013672" />
     <use xlink:href="#ArialMT-34" x="169.628906" />
     <use xlink:href="#ArialMT-35" x="225.244141" />
     <use xlink:href="#ArialMT-31" x="280.859375" />
    </g>
    
    <g style="fill: #444443" transform="translate(24.782866 99.24441) scale(0.09 -0.09)">
     <defs>
      <path id="ArialMT-70" d="M 422 -1272  L 422 3319  L 934 3319  L 934 2888  Q 1116 3141 1344 3267  Q 1572 3394 1897 3394  Q 2322 3394 2647 3175  Q 2972 2956 3137 2557  Q 3303 2159 3303 1684  Q 3303 1175 3120 767  Q 2938 359 2589 142  Q 2241 -75 1856 -75  Q 1575 -75 1351 44  Q 1128 163 984 344  L 984 -1272  L 422 -1272  z M 931 1641  Q 931 1000 1190 694  Q 1450 388 1819 388  Q 2194 388 2461 705  Q 2728 1022 2728 1688  Q 2728 2322 2467 2637  Q 2206 2953 1844 2953  Q 1484 2953 1207 2617  Q 931 2281 931 1641  z " transform="scale(0.015625)" />
      <path id="ArialMT-6f" d="M 213 1659  Q 213 2581 725 3025  Q 1153 3394 1769 3394  Q 2453 3394 2887 2945  Q 3322 2497 3322 1706  Q 3322 1066 3130 698  Q 2938 331 2570 128  Q 2203 -75 1769 -75  Q 1072 -75 642 372  Q 213 819 213 1659  z M 791 1659  Q 791 1022 1069 705  Q 1347 388 1769 388  Q 2188 388 2466 706  Q 2744 1025 2744 1678  Q 2744 2294 2464 2611  Q 2184 2928 1769 2928  Q 1347 2928 1069 2612  Q 791 2297 791 1659  z " transform="scale(0.015625)" />
      <path id="ArialMT-73" d="M 197 991  L 753 1078  Q 800 744 1014 566  Q 1228 388 1613 388  Q 2000 388 2187 545  Q 2375 703 2375 916  Q 2375 1106 2209 1216  Q 2094 1291 1634 1406  Q 1016 1563 777 1677  Q 538 1791 414 1992  Q 291 2194 291 2438  Q 291 2659 392 2848  Q 494 3038 669 3163  Q 800 3259 1026 3326  Q 1253 3394 1513 3394  Q 1903 3394 2198 3281  Q 2494 3169 2634 2976  Q 2775 2784 2828 2463  L 2278 2388  Q 2241 2644 2061 2787  Q 1881 2931 1553 2931  Q 1166 2931 1000 2803  Q 834 2675 834 2503  Q 834 2394 903 2306  Q 972 2216 1119 2156  Q 1203 2125 1616 2013  Q 2213 1853 2448 1751  Q 2684 1650 2818 1456  Q 2953 1263 2953 975  Q 2953 694 2789 445  Q 2625 197 2315 61  Q 2006 -75 1616 -75  Q 969 -75 630 194  Q 291 463 197 991  z " transform="scale(0.015625)" />
      <path id="ArialMT-69" d="M 425 3934  L 425 4581  L 988 4581  L 988 3934  L 425 3934  z M 425 0  L 425 3319  L 988 3319  L 988 0  L 425 0  z " transform="scale(0.015625)" />
      <path id="ArialMT-74" d="M 1650 503  L 1731 6  Q 1494 -44 1306 -44  Q 1000 -44 831 53  Q 663 150 594 308  Q 525 466 525 972  L 525 2881  L 113 2881  L 113 3319  L 525 3319  L 525 4141  L 1084 4478  L 1084 3319  L 1650 3319  L 1650 2881  L 1084 2881  L 1084 941  Q 1084 700 1114 631  Q 1144 563 1211 522  Q 1278 481 1403 481  Q 1497 481 1650 503  z " transform="scale(0.015625)" />
      <path id="ArialMT-76" d="M 1344 0  L 81 3319  L 675 3319  L 1388 1331  Q 1503 1009 1600 663  Q 1675 925 1809 1294  L 2547 3319  L 3125 3319  L 1869 0  L 1344 0  z " transform="scale(0.015625)" />
      <path id="ArialMT-65" d="M 2694 1069  L 3275 997  Q 3138 488 2766 206  Q 2394 -75 1816 -75  Q 1088 -75 661 373  Q 234 822 234 1631  Q 234 2469 665 2931  Q 1097 3394 1784 3394  Q 2450 3394 2872 2941  Q 3294 2488 3294 1666  Q 3294 1616 3291 1516  L 816 1516  Q 847 969 1125 678  Q 1403 388 1819 388  Q 2128 388 2347 550  Q 2566 713 2694 1069  z M 847 1978  L 2700 1978  Q 2663 2397 2488 2606  Q 2219 2931 1791 2931  Q 1403 2931 1139 2672  Q 875 2413 847 1978  z " transform="scale(0.015625)" />
     </defs>
     <use xlink:href="#ArialMT-70" />
     <use xlink:href="#ArialMT-6f" x="55.615234" />
     <use xlink:href="#ArialMT-73" x="111.230469" />
     <use xlink:href="#ArialMT-69" x="161.230469" />
     <use xlink:href="#ArialMT-74" x="183.447266" />
     <use xlink:href="#ArialMT-69" x="211.230469" />
     <use xlink:href="#ArialMT-76" x="233.447266" />
     <use xlink:href="#ArialMT-65" x="283.447266" />
    </g>
   </g>
  </g>
 </g>
</svg></g>

<g id="edge2" class="edge">
<title>node1-&gt;leaf3</title>
<path fill="none" stroke="#444443" stroke-width="0.3" d="M364.59,-228.9C370.12,-228.85 375.52,-228.81 380.63,-228.78" />
<polygon fill="#444443" stroke="#444443" stroke-width="0.3" points="380.4,-230.18 384.39,-228.75 380.38,-227.38 380.4,-230.18" />
</g>

<g id="node6" class="node">
<title>leaf5</title>
<polygon fill="none" stroke="#444443" stroke-width="0" points="452.75,-180 384.75,-180 384.75,-97 452.75,-97 452.75,-180" />
<svg width="60px" height="75px" viewBox="0 0 80.079996 101.033168" version="1.1" preserveAspectRatio="xMinYMin meet" x="388.75" y="-176">
 <metadata>
  <rdf:RDF>
   <ns2:Work>
    <dc:type rdf:resource="http://purl.org/dc/dcmitype/StillImage" />
    <dc:date>2023-10-07T18:28:13.983196</dc:date>
    <dc:format>image/svg+xml</dc:format>
    <dc:creator>
     <ns2:Agent>
      <dc:title>Matplotlib v3.6.3, https://matplotlib.org/</dc:title>
     </ns2:Agent>
    </dc:creator>
   </ns2:Work>
  </rdf:RDF>
 </metadata>
 <defs>
  <style type="text/css">*{stroke-linejoin: round; stroke-linecap: butt}</style>
 </defs>
 <g id="figure_1">
  <g id="patch_1">
   <path d="M 0 101.033168  L 80.079996 101.033168  L 80.079996 0  L 0 0  z " style="fill: #ffffff" />
  </g>
  <g id="axes_1">
   <g id="patch_2">
    <path d="M 80.079996 40.039999  C 80.079996 34.661366 78.996216 29.337467 76.893509 24.386879  C 74.790802 19.436291 71.711962 14.959771 67.841226 11.22519  C 63.970489 7.490609 59.386634 4.573975 54.363954 2.649816  C 49.341275 0.725657 43.981994 -0.166865 38.606808 0.025657  C 33.231621 0.21818 27.949926 1.491828 23.077775 3.770389  C 18.205623 6.048949 13.842176 9.286048 10.248537 13.28798  C 6.654898 17.289911 3.904206 21.975227 2.161062 27.063561  C 0.417917 32.151895 -0.282203 37.539688 0.102595 42.904539  L 40.039996 40.039999  L 80.079996 40.039999  z " style="fill: #2639e9; stroke: #2639e9; stroke-width: 0.5; stroke-linejoin: miter" />
   </g>
   <g id="patch_3">
    <path d="M 0.102595 42.904539  C 0.844306 53.245469 5.574118 62.904597 13.287975 69.831457  C 21.001832 76.758317 31.112328 80.425434 41.47318 80.054342  C 51.834033 79.683249 61.65627 75.302207 68.854801 67.841233  C 76.053332 60.380259 80.079994 50.407503 80.079996 40.040007  L 40.039996 40.039999  L 0.102595 42.904539  z " style="fill: #f76e6c; stroke: #2639e9; stroke-width: 0.5; stroke-linejoin: miter" />
   </g>
   <g id="text_1">
    
    <g style="fill: #444443" transform="translate(24.899605 89.725231) scale(0.09 -0.09)">
     <defs>
      <path id="ArialMT-6e" d="M 422 0  L 422 3319  L 928 3319  L 928 2847  Q 1294 3394 1984 3394  Q 2284 3394 2536 3286  Q 2788 3178 2913 3003  Q 3038 2828 3088 2588  Q 3119 2431 3119 2041  L 3119 0  L 2556 0  L 2556 2019  Q 2556 2363 2490 2533  Q 2425 2703 2258 2804  Q 2091 2906 1866 2906  Q 1506 2906 1245 2678  Q 984 2450 984 1813  L 984 0  L 422 0  z " transform="scale(0.015625)" />
      <path id="ArialMT-3d" d="M 3381 2694  L 356 2694  L 356 3219  L 3381 3219  L 3381 2694  z M 3381 1303  L 356 1303  L 356 1828  L 3381 1828  L 3381 1303  z " transform="scale(0.015625)" />
      <path id="ArialMT-31" d="M 2384 0  L 1822 0  L 1822 3584  Q 1619 3391 1289 3197  Q 959 3003 697 2906  L 697 3450  Q 1169 3672 1522 3987  Q 1875 4303 2022 4600  L 2384 4600  L 2384 0  z " transform="scale(0.015625)" />
      <path id="ArialMT-34" d="M 2069 0  L 2069 1097  L 81 1097  L 81 1613  L 2172 4581  L 2631 4581  L 2631 1613  L 3250 1613  L 3250 1097  L 2631 1097  L 2631 0  L 2069 0  z M 2069 1613  L 2069 3678  L 634 1613  L 2069 1613  z " transform="scale(0.015625)" />
      <path id="ArialMT-30" d="M 266 2259  Q 266 3072 433 3567  Q 600 4063 929 4331  Q 1259 4600 1759 4600  Q 2128 4600 2406 4451  Q 2684 4303 2865 4023  Q 3047 3744 3150 3342  Q 3253 2941 3253 2259  Q 3253 1453 3087 958  Q 2922 463 2592 192  Q 2263 -78 1759 -78  Q 1097 -78 719 397  Q 266 969 266 2259  z M 844 2259  Q 844 1131 1108 757  Q 1372 384 1759 384  Q 2147 384 2411 759  Q 2675 1134 2675 2259  Q 2675 3391 2411 3762  Q 2147 4134 1753 4134  Q 1366 4134 1134 3806  Q 844 3388 844 2259  z " transform="scale(0.015625)" />
     </defs>
     <use xlink:href="#ArialMT-6e" />
     <use xlink:href="#ArialMT-3d" x="55.615234" />
     <use xlink:href="#ArialMT-31" x="114.013672" />
     <use xlink:href="#ArialMT-34" x="169.628906" />
     <use xlink:href="#ArialMT-30" x="225.244141" />
     <use xlink:href="#ArialMT-34" x="280.859375" />
    </g>
    
    <g style="fill: #444443" transform="translate(24.782886 99.244418) scale(0.09 -0.09)">
     <defs>
      <path id="ArialMT-70" d="M 422 -1272  L 422 3319  L 934 3319  L 934 2888  Q 1116 3141 1344 3267  Q 1572 3394 1897 3394  Q 2322 3394 2647 3175  Q 2972 2956 3137 2557  Q 3303 2159 3303 1684  Q 3303 1175 3120 767  Q 2938 359 2589 142  Q 2241 -75 1856 -75  Q 1575 -75 1351 44  Q 1128 163 984 344  L 984 -1272  L 422 -1272  z M 931 1641  Q 931 1000 1190 694  Q 1450 388 1819 388  Q 2194 388 2461 705  Q 2728 1022 2728 1688  Q 2728 2322 2467 2637  Q 2206 2953 1844 2953  Q 1484 2953 1207 2617  Q 931 2281 931 1641  z " transform="scale(0.015625)" />
      <path id="ArialMT-6f" d="M 213 1659  Q 213 2581 725 3025  Q 1153 3394 1769 3394  Q 2453 3394 2887 2945  Q 3322 2497 3322 1706  Q 3322 1066 3130 698  Q 2938 331 2570 128  Q 2203 -75 1769 -75  Q 1072 -75 642 372  Q 213 819 213 1659  z M 791 1659  Q 791 1022 1069 705  Q 1347 388 1769 388  Q 2188 388 2466 706  Q 2744 1025 2744 1678  Q 2744 2294 2464 2611  Q 2184 2928 1769 2928  Q 1347 2928 1069 2612  Q 791 2297 791 1659  z " transform="scale(0.015625)" />
      <path id="ArialMT-73" d="M 197 991  L 753 1078  Q 800 744 1014 566  Q 1228 388 1613 388  Q 2000 388 2187 545  Q 2375 703 2375 916  Q 2375 1106 2209 1216  Q 2094 1291 1634 1406  Q 1016 1563 777 1677  Q 538 1791 414 1992  Q 291 2194 291 2438  Q 291 2659 392 2848  Q 494 3038 669 3163  Q 800 3259 1026 3326  Q 1253 3394 1513 3394  Q 1903 3394 2198 3281  Q 2494 3169 2634 2976  Q 2775 2784 2828 2463  L 2278 2388  Q 2241 2644 2061 2787  Q 1881 2931 1553 2931  Q 1166 2931 1000 2803  Q 834 2675 834 2503  Q 834 2394 903 2306  Q 972 2216 1119 2156  Q 1203 2125 1616 2013  Q 2213 1853 2448 1751  Q 2684 1650 2818 1456  Q 2953 1263 2953 975  Q 2953 694 2789 445  Q 2625 197 2315 61  Q 2006 -75 1616 -75  Q 969 -75 630 194  Q 291 463 197 991  z " transform="scale(0.015625)" />
      <path id="ArialMT-69" d="M 425 3934  L 425 4581  L 988 4581  L 988 3934  L 425 3934  z M 425 0  L 425 3319  L 988 3319  L 988 0  L 425 0  z " transform="scale(0.015625)" />
      <path id="ArialMT-74" d="M 1650 503  L 1731 6  Q 1494 -44 1306 -44  Q 1000 -44 831 53  Q 663 150 594 308  Q 525 466 525 972  L 525 2881  L 113 2881  L 113 3319  L 525 3319  L 525 4141  L 1084 4478  L 1084 3319  L 1650 3319  L 1650 2881  L 1084 2881  L 1084 941  Q 1084 700 1114 631  Q 1144 563 1211 522  Q 1278 481 1403 481  Q 1497 481 1650 503  z " transform="scale(0.015625)" />
      <path id="ArialMT-76" d="M 1344 0  L 81 3319  L 675 3319  L 1388 1331  Q 1503 1009 1600 663  Q 1675 925 1809 1294  L 2547 3319  L 3125 3319  L 1869 0  L 1344 0  z " transform="scale(0.015625)" />
      <path id="ArialMT-65" d="M 2694 1069  L 3275 997  Q 3138 488 2766 206  Q 2394 -75 1816 -75  Q 1088 -75 661 373  Q 234 822 234 1631  Q 234 2469 665 2931  Q 1097 3394 1784 3394  Q 2450 3394 2872 2941  Q 3294 2488 3294 1666  Q 3294 1616 3291 1516  L 816 1516  Q 847 969 1125 678  Q 1403 388 1819 388  Q 2128 388 2347 550  Q 2566 713 2694 1069  z M 847 1978  L 2700 1978  Q 2663 2397 2488 2606  Q 2219 2931 1791 2931  Q 1403 2931 1139 2672  Q 875 2413 847 1978  z " transform="scale(0.015625)" />
     </defs>
     <use xlink:href="#ArialMT-70" />
     <use xlink:href="#ArialMT-6f" x="55.615234" />
     <use xlink:href="#ArialMT-73" x="111.230469" />
     <use xlink:href="#ArialMT-69" x="161.230469" />
     <use xlink:href="#ArialMT-74" x="183.447266" />
     <use xlink:href="#ArialMT-69" x="211.230469" />
     <use xlink:href="#ArialMT-76" x="233.447266" />
     <use xlink:href="#ArialMT-65" x="283.447266" />
    </g>
   </g>
  </g>
 </g>
</svg></g>

<g id="edge4" class="edge">
<title>node4-&gt;leaf5</title>
<path fill="none" stroke="#444443" stroke-width="0.3" d="M367.67,-138.5C372.09,-138.5 376.4,-138.5 380.52,-138.5" />
<polygon fill="#444443" stroke="#444443" stroke-width="0.3" points="380.46,-139.9 384.46,-138.5 380.46,-137.1 380.46,-139.9" />
</g>

<g id="node7" class="node">
<title>leaf6</title>
<polygon fill="none" stroke="#444443" stroke-width="0" points="452.75,-83 384.75,-83 384.75,0 452.75,0 452.75,-83" />
<svg width="60px" height="75px" viewBox="0 0 80.079999 101.138636" version="1.1" preserveAspectRatio="xMinYMin meet" x="388.75" y="-79">
 <metadata>
  <rdf:RDF>
   <ns2:Work>
    <dc:type rdf:resource="http://purl.org/dc/dcmitype/StillImage" />
    <dc:date>2023-10-07T18:28:14.030268</dc:date>
    <dc:format>image/svg+xml</dc:format>
    <dc:creator>
     <ns2:Agent>
      <dc:title>Matplotlib v3.6.3, https://matplotlib.org/</dc:title>
     </ns2:Agent>
    </dc:creator>
   </ns2:Work>
  </rdf:RDF>
 </metadata>
 <defs>
  <style type="text/css">*{stroke-linejoin: round; stroke-linecap: butt}</style>
 </defs>
 <g id="figure_1">
  <g id="patch_1">
   <path d="M 0 101.138636  L 80.079999 101.138636  L 80.079999 0  L 0 0  z " style="fill: #ffffff" />
  </g>
  <g id="axes_1">
   <g id="patch_2">
    <path d="M 80.079999 40.039999  C 80.079999 29.575024 75.977263 19.516101 68.658151 12.036375  C 61.33904 4.556648 51.371532 0.236561 40.909022 0.00943  C 30.446512 -0.2177 20.300914 3.665752 12.664096 10.8208  C 5.027279 17.975848 0.491875 27.847246 0.037721 38.302361  L 40.039999 40.039999  L 80.079999 40.039999  z " style="fill: #2639e9; stroke: #2639e9; stroke-width: 0.5; stroke-linejoin: miter" />
   </g>
   <g id="patch_3">
    <path d="M 0.037721 38.302361  C -0.193637 43.628471 0.641037 48.947543 2.492659 53.94679  C 4.34428 58.946036 7.17583 63.525505 10.820799 67.4159  C 14.465768 71.306295 18.851279 74.429834 23.719444 76.602836  C 28.587609 78.775839 33.841095 79.95486 39.170972 80.070567  C 44.500848 80.186274 49.800552 79.236353 54.758433 77.276664  C 59.716315 75.316976 64.23325 72.386701 68.043619 68.658155  C 71.853988 64.929609 74.881608 60.477337 76.948442 55.563157  C 79.015275 50.648976 80.079998 45.371138 80.079999 40.040006  L 40.039999 40.039999  L 0.037721 38.302361  z " style="fill: #f76e6c; stroke: #2639e9; stroke-width: 0.5; stroke-linejoin: miter" />
   </g>
   <g id="text_1">
    
    <g style="fill: #444443" transform="translate(24.899608 89.72523) scale(0.09 -0.09)">
     <defs>
      <path id="ArialMT-6e" d="M 422 0  L 422 3319  L 928 3319  L 928 2847  Q 1294 3394 1984 3394  Q 2284 3394 2536 3286  Q 2788 3178 2913 3003  Q 3038 2828 3088 2588  Q 3119 2431 3119 2041  L 3119 0  L 2556 0  L 2556 2019  Q 2556 2363 2490 2533  Q 2425 2703 2258 2804  Q 2091 2906 1866 2906  Q 1506 2906 1245 2678  Q 984 2450 984 1813  L 984 0  L 422 0  z " transform="scale(0.015625)" />
      <path id="ArialMT-3d" d="M 3381 2694  L 356 2694  L 356 3219  L 3381 3219  L 3381 2694  z M 3381 1303  L 356 1303  L 356 1828  L 3381 1828  L 3381 1303  z " transform="scale(0.015625)" />
      <path id="ArialMT-31" d="M 2384 0  L 1822 0  L 1822 3584  Q 1619 3391 1289 3197  Q 959 3003 697 2906  L 697 3450  Q 1169 3672 1522 3987  Q 1875 4303 2022 4600  L 2384 4600  L 2384 0  z " transform="scale(0.015625)" />
      <path id="ArialMT-33" d="M 269 1209  L 831 1284  Q 928 806 1161 595  Q 1394 384 1728 384  Q 2125 384 2398 659  Q 2672 934 2672 1341  Q 2672 1728 2419 1979  Q 2166 2231 1775 2231  Q 1616 2231 1378 2169  L 1441 2663  Q 1497 2656 1531 2656  Q 1891 2656 2178 2843  Q 2466 3031 2466 3422  Q 2466 3731 2256 3934  Q 2047 4138 1716 4138  Q 1388 4138 1169 3931  Q 950 3725 888 3313  L 325 3413  Q 428 3978 793 4289  Q 1159 4600 1703 4600  Q 2078 4600 2393 4439  Q 2709 4278 2876 4000  Q 3044 3722 3044 3409  Q 3044 3113 2884 2869  Q 2725 2625 2413 2481  Q 2819 2388 3044 2092  Q 3269 1797 3269 1353  Q 3269 753 2831 336  Q 2394 -81 1725 -81  Q 1122 -81 723 278  Q 325 638 269 1209  z " transform="scale(0.015625)" />
      <path id="ArialMT-37" d="M 303 3981  L 303 4522  L 3269 4522  L 3269 4084  Q 2831 3619 2401 2847  Q 1972 2075 1738 1259  Q 1569 684 1522 0  L 944 0  Q 953 541 1156 1306  Q 1359 2072 1739 2783  Q 2119 3494 2547 3981  L 303 3981  z " transform="scale(0.015625)" />
      <path id="ArialMT-35" d="M 266 1200  L 856 1250  Q 922 819 1161 601  Q 1400 384 1738 384  Q 2144 384 2425 690  Q 2706 997 2706 1503  Q 2706 1984 2436 2262  Q 2166 2541 1728 2541  Q 1456 2541 1237 2417  Q 1019 2294 894 2097  L 366 2166  L 809 4519  L 3088 4519  L 3088 3981  L 1259 3981  L 1013 2750  Q 1425 3038 1878 3038  Q 2478 3038 2890 2622  Q 3303 2206 3303 1553  Q 3303 931 2941 478  Q 2500 -78 1738 -78  Q 1113 -78 717 272  Q 322 622 266 1200  z " transform="scale(0.015625)" />
     </defs>
     <use xlink:href="#ArialMT-6e" />
     <use xlink:href="#ArialMT-3d" x="55.615234" />
     <use xlink:href="#ArialMT-31" x="114.013672" />
     <use xlink:href="#ArialMT-33" x="169.628906" />
     <use xlink:href="#ArialMT-37" x="225.244141" />
     <use xlink:href="#ArialMT-35" x="280.859375" />
    </g>
    
    <g style="fill: #444443" transform="translate(23.027889 99.244417) scale(0.09 -0.09)">
     <defs>
      <path id="ArialMT-65" d="M 2694 1069  L 3275 997  Q 3138 488 2766 206  Q 2394 -75 1816 -75  Q 1088 -75 661 373  Q 234 822 234 1631  Q 234 2469 665 2931  Q 1097 3394 1784 3394  Q 2450 3394 2872 2941  Q 3294 2488 3294 1666  Q 3294 1616 3291 1516  L 816 1516  Q 847 969 1125 678  Q 1403 388 1819 388  Q 2128 388 2347 550  Q 2566 713 2694 1069  z M 847 1978  L 2700 1978  Q 2663 2397 2488 2606  Q 2219 2931 1791 2931  Q 1403 2931 1139 2672  Q 875 2413 847 1978  z " transform="scale(0.015625)" />
      <path id="ArialMT-67" d="M 319 -275  L 866 -356  Q 900 -609 1056 -725  Q 1266 -881 1628 -881  Q 2019 -881 2231 -725  Q 2444 -569 2519 -288  Q 2563 -116 2559 434  Q 2191 0 1641 0  Q 956 0 581 494  Q 206 988 206 1678  Q 206 2153 378 2554  Q 550 2956 876 3175  Q 1203 3394 1644 3394  Q 2231 3394 2613 2919  L 2613 3319  L 3131 3319  L 3131 450  Q 3131 -325 2973 -648  Q 2816 -972 2473 -1159  Q 2131 -1347 1631 -1347  Q 1038 -1347 672 -1080  Q 306 -813 319 -275  z M 784 1719  Q 784 1066 1043 766  Q 1303 466 1694 466  Q 2081 466 2343 764  Q 2606 1063 2606 1700  Q 2606 2309 2336 2618  Q 2066 2928 1684 2928  Q 1309 2928 1046 2623  Q 784 2319 784 1719  z " transform="scale(0.015625)" />
      <path id="ArialMT-61" d="M 2588 409  Q 2275 144 1986 34  Q 1697 -75 1366 -75  Q 819 -75 525 192  Q 231 459 231 875  Q 231 1119 342 1320  Q 453 1522 633 1644  Q 813 1766 1038 1828  Q 1203 1872 1538 1913  Q 2219 1994 2541 2106  Q 2544 2222 2544 2253  Q 2544 2597 2384 2738  Q 2169 2928 1744 2928  Q 1347 2928 1158 2789  Q 969 2650 878 2297  L 328 2372  Q 403 2725 575 2942  Q 747 3159 1072 3276  Q 1397 3394 1825 3394  Q 2250 3394 2515 3294  Q 2781 3194 2906 3042  Q 3031 2891 3081 2659  Q 3109 2516 3109 2141  L 3109 1391  Q 3109 606 3145 398  Q 3181 191 3288 0  L 2700 0  Q 2613 175 2588 409  z M 2541 1666  Q 2234 1541 1622 1453  Q 1275 1403 1131 1340  Q 988 1278 909 1158  Q 831 1038 831 891  Q 831 666 1001 516  Q 1172 366 1500 366  Q 1825 366 2078 508  Q 2331 650 2450 897  Q 2541 1088 2541 1459  L 2541 1666  z " transform="scale(0.015625)" />
      <path id="ArialMT-74" d="M 1650 503  L 1731 6  Q 1494 -44 1306 -44  Q 1000 -44 831 53  Q 663 150 594 308  Q 525 466 525 972  L 525 2881  L 113 2881  L 113 3319  L 525 3319  L 525 4141  L 1084 4478  L 1084 3319  L 1650 3319  L 1650 2881  L 1084 2881  L 1084 941  Q 1084 700 1114 631  Q 1144 563 1211 522  Q 1278 481 1403 481  Q 1497 481 1650 503  z " transform="scale(0.015625)" />
      <path id="ArialMT-69" d="M 425 3934  L 425 4581  L 988 4581  L 988 3934  L 425 3934  z M 425 0  L 425 3319  L 988 3319  L 988 0  L 425 0  z " transform="scale(0.015625)" />
      <path id="ArialMT-76" d="M 1344 0  L 81 3319  L 675 3319  L 1388 1331  Q 1503 1009 1600 663  Q 1675 925 1809 1294  L 2547 3319  L 3125 3319  L 1869 0  L 1344 0  z " transform="scale(0.015625)" />
     </defs>
     <use xlink:href="#ArialMT-6e" />
     <use xlink:href="#ArialMT-65" x="55.615234" />
     <use xlink:href="#ArialMT-67" x="111.230469" />
     <use xlink:href="#ArialMT-61" x="166.845703" />
     <use xlink:href="#ArialMT-74" x="222.460938" />
     <use xlink:href="#ArialMT-69" x="250.244141" />
     <use xlink:href="#ArialMT-76" x="272.460938" />
     <use xlink:href="#ArialMT-65" x="322.460938" />
    </g>
   </g>
  </g>
 </g>
</svg></g>

<g id="edge5" class="edge">
<title>node4-&gt;leaf6</title>
<path fill="none" stroke="#444443" stroke-width="0.3" d="M350.5,-90C361.15,-82.32 371.79,-74.65 381.37,-67.74" />
<polygon fill="#444443" stroke="#444443" stroke-width="0.3" points="382.05,-68.97 384.48,-65.49 380.42,-66.7 382.05,-68.97" />
</g>

<g id="node3" class="node">
<title>node0</title>
<svg width="157px" height="49px" viewBox="0 0 210.322812 66.269531" version="1.1" preserveAspectRatio="xMinYMin meet" x="4" y="-208">
 <metadata>
  <rdf:RDF>
   <ns2:Work>
    <dc:type rdf:resource="http://purl.org/dc/dcmitype/StillImage" />
    <dc:date>2023-10-07T18:28:13.796213</dc:date>
    <dc:format>image/svg+xml</dc:format>
    <dc:creator>
     <ns2:Agent>
      <dc:title>Matplotlib v3.6.3, https://matplotlib.org/</dc:title>
     </ns2:Agent>
    </dc:creator>
   </ns2:Work>
  </rdf:RDF>
 </metadata>
 <defs>
  <style type="text/css">*{stroke-linejoin: round; stroke-linecap: butt}</style>
 </defs>
 <g id="figure_1">
  <g id="patch_1">
   <path d="M 0 66.269531  L 210.322812 66.269531  L 210.322812 0  L 0 0  z " style="fill: #ffffff" />
  </g>
  <g id="axes_1">
   <g id="patch_2">
    <path d="M 26.182813 29.978906  L 210.322812 29.978906  L 210.322812 2.258906  L 26.182813 2.258906  z " style="fill: #ffffff" />
   </g>
   <g id="matplotlib.axis_1">
    <g id="xtick_1">
     <g id="text_1">
      
      <g style="fill: #444443" transform="translate(35.244986 51.136719) scale(0.1 -0.1)">
       <defs>
        <path id="ArialMT-30" d="M 266 2259  Q 266 3072 433 3567  Q 600 4063 929 4331  Q 1259 4600 1759 4600  Q 2128 4600 2406 4451  Q 2684 4303 2865 4023  Q 3047 3744 3150 3342  Q 3253 2941 3253 2259  Q 3253 1453 3087 958  Q 2922 463 2592 192  Q 2263 -78 1759 -78  Q 1097 -78 719 397  Q 266 969 266 2259  z M 844 2259  Q 844 1131 1108 757  Q 1372 384 1759 384  Q 2147 384 2411 759  Q 2675 1134 2675 2259  Q 2675 3391 2411 3762  Q 2147 4134 1753 4134  Q 1366 4134 1134 3806  Q 844 3388 844 2259  z " transform="scale(0.015625)" />
        <path id="ArialMT-2e" d="M 581 0  L 581 641  L 1222 641  L 1222 0  L 581 0  z " transform="scale(0.015625)" />
       </defs>
       <use xlink:href="#ArialMT-30" />
       <use xlink:href="#ArialMT-2e" x="55.615234" />
       <use xlink:href="#ArialMT-30" x="83.398438" />
      </g>
     </g>
    </g>
    <g id="xtick_2">
     <g id="text_2">
      
      <g style="fill: #444443" transform="translate(128.204552 51.136719) scale(0.1 -0.1)">
       <defs>
        <path id="ArialMT-35" d="M 266 1200  L 856 1250  Q 922 819 1161 601  Q 1400 384 1738 384  Q 2144 384 2425 690  Q 2706 997 2706 1503  Q 2706 1984 2436 2262  Q 2166 2541 1728 2541  Q 1456 2541 1237 2417  Q 1019 2294 894 2097  L 366 2166  L 809 4519  L 3088 4519  L 3088 3981  L 1259 3981  L 1013 2750  Q 1425 3038 1878 3038  Q 2478 3038 2890 2622  Q 3303 2206 3303 1553  Q 3303 931 2941 478  Q 2500 -78 1738 -78  Q 1113 -78 717 272  Q 322 622 266 1200  z " transform="scale(0.015625)" />
       </defs>
       <use xlink:href="#ArialMT-35" />
       <use xlink:href="#ArialMT-2e" x="55.615234" />
       <use xlink:href="#ArialMT-35" x="83.398438" />
      </g>
     </g>
    </g>
    <g id="xtick_3">
     <g id="text_3">
      
      <g style="fill: #444443" transform="translate(187.360639 51.136719) scale(0.1 -0.1)">
       <defs>
        <path id="ArialMT-39" d="M 350 1059  L 891 1109  Q 959 728 1153 556  Q 1347 384 1650 384  Q 1909 384 2104 503  Q 2300 622 2425 820  Q 2550 1019 2634 1356  Q 2719 1694 2719 2044  Q 2719 2081 2716 2156  Q 2547 1888 2255 1720  Q 1963 1553 1622 1553  Q 1053 1553 659 1965  Q 266 2378 266 3053  Q 266 3750 677 4175  Q 1088 4600 1706 4600  Q 2153 4600 2523 4359  Q 2894 4119 3086 3673  Q 3278 3228 3278 2384  Q 3278 1506 3087 986  Q 2897 466 2520 194  Q 2144 -78 1638 -78  Q 1100 -78 759 220  Q 419 519 350 1059  z M 2653 3081  Q 2653 3566 2395 3850  Q 2138 4134 1775 4134  Q 1400 4134 1122 3828  Q 844 3522 844 3034  Q 844 2597 1108 2323  Q 1372 2050 1759 2050  Q 2150 2050 2401 2323  Q 2653 2597 2653 3081  z " transform="scale(0.015625)" />
       </defs>
       <use xlink:href="#ArialMT-39" />
       <use xlink:href="#ArialMT-2e" x="55.615234" />
       <use xlink:href="#ArialMT-30" x="83.398438" />
      </g>
     </g>
    </g>
    <g id="text_4">
     
     <g style="fill: #444443" transform="translate(114.917656 64.282031) scale(0.1 -0.1)">
      <defs>
       <path id="ArialMT-41" d="M -9 0  L 1750 4581  L 2403 4581  L 4278 0  L 3588 0  L 3053 1388  L 1138 1388  L 634 0  L -9 0  z M 1313 1881  L 2866 1881  L 2388 3150  Q 2169 3728 2063 4100  Q 1975 3659 1816 3225  L 1313 1881  z " transform="scale(0.015625)" />
      </defs>
      <use xlink:href="#ArialMT-41" />
     </g>
    </g>
   </g>
   <g id="matplotlib.axis_2">
    <g id="ytick_1">
     <g id="text_5">
      
      <g style="fill: #444443" transform="translate(11.121875 33.557812) scale(0.1 -0.1)">
       <use xlink:href="#ArialMT-30" />
      </g>
     </g>
    </g>
    <g id="ytick_2">
     <g id="text_6">
      
      <g style="fill: #444443" transform="translate(0 7.157812) scale(0.1 -0.1)">
       <defs>
        <path id="ArialMT-37" d="M 303 3981  L 303 4522  L 3269 4522  L 3269 4084  Q 2831 3619 2401 2847  Q 1972 2075 1738 1259  Q 1569 684 1522 0  L 944 0  Q 953 541 1156 1306  Q 1359 2072 1739 2783  Q 2119 3494 2547 3981  L 303 3981  z " transform="scale(0.015625)" />
        <path id="ArialMT-38" d="M 1131 2484  Q 781 2613 612 2850  Q 444 3088 444 3419  Q 444 3919 803 4259  Q 1163 4600 1759 4600  Q 2359 4600 2725 4251  Q 3091 3903 3091 3403  Q 3091 3084 2923 2848  Q 2756 2613 2416 2484  Q 2838 2347 3058 2040  Q 3278 1734 3278 1309  Q 3278 722 2862 322  Q 2447 -78 1769 -78  Q 1091 -78 675 323  Q 259 725 259 1325  Q 259 1772 486 2073  Q 713 2375 1131 2484  z M 1019 3438  Q 1019 3113 1228 2906  Q 1438 2700 1772 2700  Q 2097 2700 2305 2904  Q 2513 3109 2513 3406  Q 2513 3716 2298 3927  Q 2084 4138 1766 4138  Q 1444 4138 1231 3931  Q 1019 3725 1019 3438  z M 838 1322  Q 838 1081 952 856  Q 1066 631 1291 507  Q 1516 384 1775 384  Q 2178 384 2440 643  Q 2703 903 2703 1303  Q 2703 1709 2433 1975  Q 2163 2241 1756 2241  Q 1359 2241 1098 1978  Q 838 1716 838 1322  z " transform="scale(0.015625)" />
       </defs>
       <use xlink:href="#ArialMT-37" />
       <use xlink:href="#ArialMT-35" x="55.615234" />
       <use xlink:href="#ArialMT-38" x="111.230469" />
      </g>
     </g>
    </g>
   </g>
   <g id="patch_3">
    <path d="M 42.194986 29.978906  L 50.201073 29.978906  L 50.201073 16.674421  L 42.194986 16.674421  z " clip-path="url(#pfc4fa3ee93)" style="fill: #2639e9; stroke: #444443; stroke-width: 0.5; stroke-linejoin: miter" />
   </g>
   <g id="patch_4">
    <path d="M 50.201073 29.978906  L 58.20716 29.978906  L 58.20716 29.978906  L 50.201073 29.978906  z " clip-path="url(#pfc4fa3ee93)" style="fill: #2639e9; stroke: #444443; stroke-width: 0.5; stroke-linejoin: miter" />
   </g>
   <g id="patch_5">
    <path d="M 58.20716 29.978906  L 66.213247 29.978906  L 66.213247 18.206875  L 58.20716 18.206875  z " clip-path="url(#pfc4fa3ee93)" style="fill: #2639e9; stroke: #444443; stroke-width: 0.5; stroke-linejoin: miter" />
   </g>
   <g id="patch_6">
    <path d="M 66.213247 29.978906  L 74.219334 29.978906  L 74.219334 29.978906  L 66.213247 29.978906  z " clip-path="url(#pfc4fa3ee93)" style="fill: #2639e9; stroke: #444443; stroke-width: 0.5; stroke-linejoin: miter" />
   </g>
   <g id="patch_7">
    <path d="M 74.219334 29.978906  L 82.225421 29.978906  L 82.225421 18.137218  L 74.219334 18.137218  z " clip-path="url(#pfc4fa3ee93)" style="fill: #2639e9; stroke: #444443; stroke-width: 0.5; stroke-linejoin: miter" />
   </g>
   <g id="patch_8">
    <path d="M 82.225421 29.978906  L 90.231508 29.978906  L 90.231508 29.978906  L 82.225421 29.978906  z " clip-path="url(#pfc4fa3ee93)" style="fill: #2639e9; stroke: #444443; stroke-width: 0.5; stroke-linejoin: miter" />
   </g>
   <g id="patch_9">
    <path d="M 90.231508 29.978906  L 98.237595 29.978906  L 98.237595 17.057534  L 90.231508 17.057534  z " clip-path="url(#pfc4fa3ee93)" style="fill: #2639e9; stroke: #444443; stroke-width: 0.5; stroke-linejoin: miter" />
   </g>
   <g id="patch_10">
    <path d="M 98.237595 29.978906  L 106.243682 29.978906  L 106.243682 29.978906  L 98.237595 29.978906  z " clip-path="url(#pfc4fa3ee93)" style="fill: #2639e9; stroke: #444443; stroke-width: 0.5; stroke-linejoin: miter" />
   </g>
   <g id="patch_11">
    <path d="M 106.243682 29.978906  L 114.249769 29.978906  L 114.249769 17.092363  L 106.243682 17.092363  z " clip-path="url(#pfc4fa3ee93)" style="fill: #2639e9; stroke: #444443; stroke-width: 0.5; stroke-linejoin: miter" />
   </g>
   <g id="patch_12">
    <path d="M 114.249769 29.978906  L 122.255856 29.978906  L 122.255856 29.978906  L 114.249769 29.978906  z " clip-path="url(#pfc4fa3ee93)" style="fill: #2639e9; stroke: #444443; stroke-width: 0.5; stroke-linejoin: miter" />
   </g>
   <g id="patch_13">
    <path d="M 122.255856 29.978906  L 130.261943 29.978906  L 130.261943 16.082336  L 122.255856 16.082336  z " clip-path="url(#pfc4fa3ee93)" style="fill: #2639e9; stroke: #444443; stroke-width: 0.5; stroke-linejoin: miter" />
   </g>
   <g id="patch_14">
    <path d="M 130.261943 29.978906  L 138.26803 29.978906  L 138.26803 29.978906  L 130.261943 29.978906  z " clip-path="url(#pfc4fa3ee93)" style="fill: #2639e9; stroke: #444443; stroke-width: 0.5; stroke-linejoin: miter" />
   </g>
   <g id="patch_15">
    <path d="M 138.26803 29.978906  L 146.274117 29.978906  L 146.274117 17.823761  L 138.26803 17.823761  z " clip-path="url(#pfc4fa3ee93)" style="fill: #2639e9; stroke: #444443; stroke-width: 0.5; stroke-linejoin: miter" />
   </g>
   <g id="patch_16">
    <path d="M 146.274117 29.978906  L 154.280204 29.978906  L 154.280204 29.978906  L 146.274117 29.978906  z " clip-path="url(#pfc4fa3ee93)" style="fill: #2639e9; stroke: #444443; stroke-width: 0.5; stroke-linejoin: miter" />
   </g>
   <g id="patch_17">
    <path d="M 154.280204 29.978906  L 162.286291 29.978906  L 162.286291 17.963075  L 154.280204 17.963075  z " clip-path="url(#pfc4fa3ee93)" style="fill: #2639e9; stroke: #444443; stroke-width: 0.5; stroke-linejoin: miter" />
   </g>
   <g id="patch_18">
    <path d="M 162.286291 29.978906  L 170.292378 29.978906  L 170.292378 29.978906  L 162.286291 29.978906  z " clip-path="url(#pfc4fa3ee93)" style="fill: #2639e9; stroke: #444443; stroke-width: 0.5; stroke-linejoin: miter" />
   </g>
   <g id="patch_19">
    <path d="M 170.292378 29.978906  L 178.298465 29.978906  L 178.298465 17.61479  L 170.292378 17.61479  z " clip-path="url(#pfc4fa3ee93)" style="fill: #2639e9; stroke: #444443; stroke-width: 0.5; stroke-linejoin: miter" />
   </g>
   <g id="patch_20">
    <path d="M 178.298465 29.978906  L 186.304552 29.978906  L 186.304552 29.978906  L 178.298465 29.978906  z " clip-path="url(#pfc4fa3ee93)" style="fill: #2639e9; stroke: #444443; stroke-width: 0.5; stroke-linejoin: miter" />
   </g>
   <g id="patch_21">
    <path d="M 186.304552 29.978906  L 194.310639 29.978906  L 194.310639 17.893418  L 186.304552 17.893418  z " clip-path="url(#pfc4fa3ee93)" style="fill: #2639e9; stroke: #444443; stroke-width: 0.5; stroke-linejoin: miter" />
   </g>
   <g id="patch_22">
    <path d="M 42.194986 16.674421  L 50.201073 16.674421  L 50.201073 4.693418  L 42.194986 4.693418  z " clip-path="url(#pfc4fa3ee93)" style="fill: #f76e6c; stroke: #444443; stroke-width: 0.5; stroke-linejoin: miter" />
   </g>
   <g id="patch_23">
    <path d="M 50.201073 29.978906  L 58.20716 29.978906  L 58.20716 29.978906  L 50.201073 29.978906  z " clip-path="url(#pfc4fa3ee93)" style="fill: #f76e6c; stroke: #444443; stroke-width: 0.5; stroke-linejoin: miter" />
   </g>
   <g id="patch_24">
    <path d="M 58.20716 18.206875  L 66.213247 18.206875  L 66.213247 7.375212  L 58.20716 7.375212  z " clip-path="url(#pfc4fa3ee93)" style="fill: #f76e6c; stroke: #444443; stroke-width: 0.5; stroke-linejoin: miter" />
   </g>
   <g id="patch_25">
    <path d="M 66.213247 29.978906  L 74.219334 29.978906  L 74.219334 29.978906  L 66.213247 29.978906  z " clip-path="url(#pfc4fa3ee93)" style="fill: #f76e6c; stroke: #444443; stroke-width: 0.5; stroke-linejoin: miter" />
   </g>
   <g id="patch_26">
    <path d="M 74.219334 18.137218  L 82.225421 18.137218  L 82.225421 6.225872  L 74.219334 6.225872  z " clip-path="url(#pfc4fa3ee93)" style="fill: #f76e6c; stroke: #444443; stroke-width: 0.5; stroke-linejoin: miter" />
   </g>
   <g id="patch_27">
    <path d="M 82.225421 29.978906  L 90.231508 29.978906  L 90.231508 29.978906  L 82.225421 29.978906  z " clip-path="url(#pfc4fa3ee93)" style="fill: #f76e6c; stroke: #444443; stroke-width: 0.5; stroke-linejoin: miter" />
   </g>
   <g id="patch_28">
    <path d="M 90.231508 17.057534  L 98.237595 17.057534  L 98.237595 5.146189  L 90.231508 5.146189  z " clip-path="url(#pfc4fa3ee93)" style="fill: #f76e6c; stroke: #444443; stroke-width: 0.5; stroke-linejoin: miter" />
   </g>
   <g id="patch_29">
    <path d="M 98.237595 29.978906  L 106.243682 29.978906  L 106.243682 29.978906  L 98.237595 29.978906  z " clip-path="url(#pfc4fa3ee93)" style="fill: #f76e6c; stroke: #444443; stroke-width: 0.5; stroke-linejoin: miter" />
   </g>
   <g id="patch_30">
    <path d="M 106.243682 17.092363  L 114.249769 17.092363  L 114.249769 5.842758  L 106.243682 5.842758  z " clip-path="url(#pfc4fa3ee93)" style="fill: #f76e6c; stroke: #444443; stroke-width: 0.5; stroke-linejoin: miter" />
   </g>
   <g id="patch_31">
    <path d="M 114.249769 29.978906  L 122.255856 29.978906  L 122.255856 29.978906  L 114.249769 29.978906  z " clip-path="url(#pfc4fa3ee93)" style="fill: #f76e6c; stroke: #444443; stroke-width: 0.5; stroke-linejoin: miter" />
   </g>
   <g id="patch_32">
    <path d="M 122.255856 16.082336  L 130.261943 16.082336  L 130.261943 3.578906  L 122.255856 3.578906  z " clip-path="url(#pfc4fa3ee93)" style="fill: #f76e6c; stroke: #444443; stroke-width: 0.5; stroke-linejoin: miter" />
   </g>
   <g id="patch_33">
    <path d="M 130.261943 29.978906  L 138.26803 29.978906  L 138.26803 29.978906  L 130.261943 29.978906  z " clip-path="url(#pfc4fa3ee93)" style="fill: #f76e6c; stroke: #444443; stroke-width: 0.5; stroke-linejoin: miter" />
   </g>
   <g id="patch_34">
    <path d="M 138.26803 17.823761  L 146.274117 17.823761  L 146.274117 5.285503  L 138.26803 5.285503  z " clip-path="url(#pfc4fa3ee93)" style="fill: #f76e6c; stroke: #444443; stroke-width: 0.5; stroke-linejoin: miter" />
   </g>
   <g id="patch_35">
    <path d="M 146.274117 29.978906  L 154.280204 29.978906  L 154.280204 29.978906  L 146.274117 29.978906  z " clip-path="url(#pfc4fa3ee93)" style="fill: #f76e6c; stroke: #444443; stroke-width: 0.5; stroke-linejoin: miter" />
   </g>
   <g id="patch_36">
    <path d="M 154.280204 17.963075  L 162.286291 17.963075  L 162.286291 5.076532  L 154.280204 5.076532  z " clip-path="url(#pfc4fa3ee93)" style="fill: #f76e6c; stroke: #444443; stroke-width: 0.5; stroke-linejoin: miter" />
   </g>
   <g id="patch_37">
    <path d="M 162.286291 29.978906  L 170.292378 29.978906  L 170.292378 29.978906  L 162.286291 29.978906  z " clip-path="url(#pfc4fa3ee93)" style="fill: #f76e6c; stroke: #444443; stroke-width: 0.5; stroke-linejoin: miter" />
   </g>
   <g id="patch_38">
    <path d="M 170.292378 17.61479  L 178.298465 17.61479  L 178.298465 6.225872  L 170.292378 6.225872  z " clip-path="url(#pfc4fa3ee93)" style="fill: #f76e6c; stroke: #444443; stroke-width: 0.5; stroke-linejoin: miter" />
   </g>
   <g id="patch_39">
    <path d="M 178.298465 29.978906  L 186.304552 29.978906  L 186.304552 29.978906  L 178.298465 29.978906  z " clip-path="url(#pfc4fa3ee93)" style="fill: #f76e6c; stroke: #444443; stroke-width: 0.5; stroke-linejoin: miter" />
   </g>
   <g id="patch_40">
    <path d="M 186.304552 17.893418  L 194.310639 17.893418  L 194.310639 6.539328  L 186.304552 6.539328  z " clip-path="url(#pfc4fa3ee93)" style="fill: #f76e6c; stroke: #444443; stroke-width: 0.5; stroke-linejoin: miter" />
   </g>
   <g id="patch_41">
    <path d="M 135.154552 30.810506  L 131.840032 39.126506  L 138.469072 39.126506  z " style="fill: #444443; stroke: #ffffff; stroke-linejoin: miter" />
   </g>
   <g id="patch_42">
    <path d="M 26.182813 29.978906  L 26.182813 2.258906  " style="fill: none; stroke: #444443; stroke-width: 0.3; stroke-linejoin: miter; stroke-linecap: square" />
   </g>
   <g id="patch_43">
    <path d="M 26.182812 29.978906  L 210.322812 29.978906  " style="fill: none; stroke: #444443; stroke-width: 0.3; stroke-linejoin: miter; stroke-linecap: square" />
   </g>
  </g>
 </g>
 <defs>
  <clipPath id="pfc4fa3ee93">
   <rect x="26.182813" y="2.258906" width="184.14" height="27.72" />
  </clipPath>
 </defs>
</svg></g>

<g id="edge7" class="edge">
<title>node0-&gt;node1</title>
<path fill="none" stroke="#444443" stroke-width="0.3" d="M164.79,-202.41C175.04,-204.79 185.55,-207.24 195.86,-209.64" />
<polygon fill="#444443" stroke="#444443" stroke-width="0.3" points="195.3,-210.94 199.52,-210.49 195.94,-208.22 195.3,-210.94" />
<text text-anchor="start" x="173.38" y="-210.95" font-family="Arial" font-size="14.00" fill="#444443"> &#160;&#8804;</text>
</g>

<g id="edge8" class="edge">
<title>node0-&gt;node4</title>
<path fill="none" stroke="#444443" stroke-width="0.3" d="M164.79,-165C174.02,-162.9 183.46,-160.75 192.77,-158.63" />
<polygon fill="#444443" stroke="#444443" stroke-width="0.3" points="192.72,-160.08 196.31,-157.83 192.1,-157.35 192.72,-160.08" />
<text text-anchor="start" x="173" y="-164.95" font-family="Arial" font-size="14.00" fill="#444443"> &#160;&gt;</text>
</g>



<g id="node8" class="node">
<title>legend</title>
<polygon fill="none" stroke="black" stroke-width="0" points="117.16,-270.16 47.84,-270.16 47.84,-218.84 117.16,-218.84 117.16,-270.16" />
<svg width="65px" height="47px" viewBox="0 0 86.754687 62.854688" version="1.1" preserveAspectRatio="xMinYMin meet" x="50" y="-268">
 <metadata>
  <rdf:RDF>
   <ns2:Work>
    <dc:type rdf:resource="http://purl.org/dc/dcmitype/StillImage" />
    <dc:date>2023-10-07T18:28:12.712941</dc:date>
    <dc:format>image/svg+xml</dc:format>
    <dc:creator>
     <ns2:Agent>
      <dc:title>Matplotlib v3.6.3, https://matplotlib.org/</dc:title>
     </ns2:Agent>
    </dc:creator>
   </ns2:Work>
  </rdf:RDF>
 </metadata>
 <defs>
  <style type="text/css">*{stroke-linejoin: round; stroke-linecap: butt}</style>
 </defs>
 <g id="figure_1">
  <g id="patch_1">
   <path d="M 0 62.854688  L 86.754687 62.854688  L 86.754687 0  L 0 0  z " style="fill: #ffffff" />
  </g>
  <g id="axes_1">
   <g id="legend_1">
    <g id="patch_2">
     <path d="M 2.2 62.854688  L 79.054687 62.854688  Q 81.254687 62.854688 81.254687 60.654688  L 81.254687 7.7  Q 81.254687 5.5 79.054687 5.5  L 2.2 5.5  Q 0 5.5 0 7.7  L 0 60.654688  Q 0 62.854688 2.2 62.854688  z " style="fill: #ffffff; opacity: 0.8; stroke: #ffffff; stroke-width: 0.5; stroke-linejoin: miter" />
    </g>
    <g id="text_1">
     
     <g style="fill: #444443" transform="translate(26.736719 21.457812) scale(0.1 -0.1)">
      <defs>
       <path id="Arial-BoldMT-74" d="M 1981 3319  L 1981 2619  L 1381 2619  L 1381 1281  Q 1381 875 1398 808  Q 1416 741 1477 697  Q 1538 653 1625 653  Q 1747 653 1978 738  L 2053 56  Q 1747 -75 1359 -75  Q 1122 -75 931 4  Q 741 84 652 211  Q 563 338 528 553  Q 500 706 500 1172  L 500 2619  L 97 2619  L 97 3319  L 500 3319  L 500 3978  L 1381 4491  L 1381 3319  L 1981 3319  z " transform="scale(0.015625)" />
       <path id="Arial-BoldMT-61" d="M 1116 2306  L 319 2450  Q 453 2931 781 3162  Q 1109 3394 1756 3394  Q 2344 3394 2631 3255  Q 2919 3116 3036 2902  Q 3153 2688 3153 2116  L 3144 1091  Q 3144 653 3186 445  Q 3228 238 3344 0  L 2475 0  Q 2441 88 2391 259  Q 2369 338 2359 363  Q 2134 144 1878 34  Q 1622 -75 1331 -75  Q 819 -75 523 203  Q 228 481 228 906  Q 228 1188 362 1408  Q 497 1628 739 1745  Q 981 1863 1438 1950  Q 2053 2066 2291 2166  L 2291 2253  Q 2291 2506 2166 2614  Q 2041 2722 1694 2722  Q 1459 2722 1328 2630  Q 1197 2538 1116 2306  z M 2291 1594  Q 2122 1538 1756 1459  Q 1391 1381 1278 1306  Q 1106 1184 1106 997  Q 1106 813 1243 678  Q 1381 544 1594 544  Q 1831 544 2047 700  Q 2206 819 2256 991  Q 2291 1103 2291 1419  L 2291 1594  z " transform="scale(0.015625)" />
       <path id="Arial-BoldMT-72" d="M 1300 0  L 422 0  L 422 3319  L 1238 3319  L 1238 2847  Q 1447 3181 1614 3287  Q 1781 3394 1994 3394  Q 2294 3394 2572 3228  L 2300 2463  Q 2078 2606 1888 2606  Q 1703 2606 1575 2504  Q 1447 2403 1373 2137  Q 1300 1872 1300 1025  L 1300 0  z " transform="scale(0.015625)" />
       <path id="Arial-BoldMT-67" d="M 378 -219  L 1381 -341  Q 1406 -516 1497 -581  Q 1622 -675 1891 -675  Q 2234 -675 2406 -572  Q 2522 -503 2581 -350  Q 2622 -241 2622 53  L 2622 538  Q 2228 0 1628 0  Q 959 0 569 566  Q 263 1013 263 1678  Q 263 2513 664 2953  Q 1066 3394 1663 3394  Q 2278 3394 2678 2853  L 2678 3319  L 3500 3319  L 3500 341  Q 3500 -247 3403 -537  Q 3306 -828 3131 -993  Q 2956 -1159 2664 -1253  Q 2372 -1347 1925 -1347  Q 1081 -1347 728 -1058  Q 375 -769 375 -325  Q 375 -281 378 -219  z M 1163 1728  Q 1163 1200 1367 954  Q 1572 709 1872 709  Q 2194 709 2416 961  Q 2638 1213 2638 1706  Q 2638 2222 2425 2472  Q 2213 2722 1888 2722  Q 1572 2722 1367 2476  Q 1163 2231 1163 1728  z " transform="scale(0.015625)" />
       <path id="Arial-BoldMT-65" d="M 2381 1056  L 3256 909  Q 3088 428 2723 176  Q 2359 -75 1813 -75  Q 947 -75 531 491  Q 203 944 203 1634  Q 203 2459 634 2926  Q 1066 3394 1725 3394  Q 2466 3394 2894 2905  Q 3322 2416 3303 1406  L 1103 1406  Q 1113 1016 1316 798  Q 1519 581 1822 581  Q 2028 581 2168 693  Q 2309 806 2381 1056  z M 2431 1944  Q 2422 2325 2234 2523  Q 2047 2722 1778 2722  Q 1491 2722 1303 2513  Q 1116 2303 1119 1944  L 2431 1944  z " transform="scale(0.015625)" />
      </defs>
      <use xlink:href="#Arial-BoldMT-74" />
      <use xlink:href="#Arial-BoldMT-61" x="33.300781" />
      <use xlink:href="#Arial-BoldMT-72" x="88.916016" />
      <use xlink:href="#Arial-BoldMT-67" x="127.832031" />
      <use xlink:href="#Arial-BoldMT-65" x="188.916016" />
      <use xlink:href="#Arial-BoldMT-74" x="244.53125" />
     </g>
    </g>
    <g id="patch_3">
     <path d="M 8.8 36.7625  L 30.8 36.7625  L 30.8 29.0625  L 8.8 29.0625  z " style="fill: #2639e9; stroke: #444443; stroke-width: 0.4; stroke-linejoin: miter" />
    </g>
    <g id="text_2">
     
     <g style="fill: #444443" transform="translate(34.65 36.7625) scale(0.1 -0.1)">
      <defs>
       <path id="ArialMT-70" d="M 422 -1272  L 422 3319  L 934 3319  L 934 2888  Q 1116 3141 1344 3267  Q 1572 3394 1897 3394  Q 2322 3394 2647 3175  Q 2972 2956 3137 2557  Q 3303 2159 3303 1684  Q 3303 1175 3120 767  Q 2938 359 2589 142  Q 2241 -75 1856 -75  Q 1575 -75 1351 44  Q 1128 163 984 344  L 984 -1272  L 422 -1272  z M 931 1641  Q 931 1000 1190 694  Q 1450 388 1819 388  Q 2194 388 2461 705  Q 2728 1022 2728 1688  Q 2728 2322 2467 2637  Q 2206 2953 1844 2953  Q 1484 2953 1207 2617  Q 931 2281 931 1641  z " transform="scale(0.015625)" />
       <path id="ArialMT-6f" d="M 213 1659  Q 213 2581 725 3025  Q 1153 3394 1769 3394  Q 2453 3394 2887 2945  Q 3322 2497 3322 1706  Q 3322 1066 3130 698  Q 2938 331 2570 128  Q 2203 -75 1769 -75  Q 1072 -75 642 372  Q 213 819 213 1659  z M 791 1659  Q 791 1022 1069 705  Q 1347 388 1769 388  Q 2188 388 2466 706  Q 2744 1025 2744 1678  Q 2744 2294 2464 2611  Q 2184 2928 1769 2928  Q 1347 2928 1069 2612  Q 791 2297 791 1659  z " transform="scale(0.015625)" />
       <path id="ArialMT-73" d="M 197 991  L 753 1078  Q 800 744 1014 566  Q 1228 388 1613 388  Q 2000 388 2187 545  Q 2375 703 2375 916  Q 2375 1106 2209 1216  Q 2094 1291 1634 1406  Q 1016 1563 777 1677  Q 538 1791 414 1992  Q 291 2194 291 2438  Q 291 2659 392 2848  Q 494 3038 669 3163  Q 800 3259 1026 3326  Q 1253 3394 1513 3394  Q 1903 3394 2198 3281  Q 2494 3169 2634 2976  Q 2775 2784 2828 2463  L 2278 2388  Q 2241 2644 2061 2787  Q 1881 2931 1553 2931  Q 1166 2931 1000 2803  Q 834 2675 834 2503  Q 834 2394 903 2306  Q 972 2216 1119 2156  Q 1203 2125 1616 2013  Q 2213 1853 2448 1751  Q 2684 1650 2818 1456  Q 2953 1263 2953 975  Q 2953 694 2789 445  Q 2625 197 2315 61  Q 2006 -75 1616 -75  Q 969 -75 630 194  Q 291 463 197 991  z " transform="scale(0.015625)" />
       <path id="ArialMT-69" d="M 425 3934  L 425 4581  L 988 4581  L 988 3934  L 425 3934  z M 425 0  L 425 3319  L 988 3319  L 988 0  L 425 0  z " transform="scale(0.015625)" />
       <path id="ArialMT-74" d="M 1650 503  L 1731 6  Q 1494 -44 1306 -44  Q 1000 -44 831 53  Q 663 150 594 308  Q 525 466 525 972  L 525 2881  L 113 2881  L 113 3319  L 525 3319  L 525 4141  L 1084 4478  L 1084 3319  L 1650 3319  L 1650 2881  L 1084 2881  L 1084 941  Q 1084 700 1114 631  Q 1144 563 1211 522  Q 1278 481 1403 481  Q 1497 481 1650 503  z " transform="scale(0.015625)" />
       <path id="ArialMT-76" d="M 1344 0  L 81 3319  L 675 3319  L 1388 1331  Q 1503 1009 1600 663  Q 1675 925 1809 1294  L 2547 3319  L 3125 3319  L 1869 0  L 1344 0  z " transform="scale(0.015625)" />
       <path id="ArialMT-65" d="M 2694 1069  L 3275 997  Q 3138 488 2766 206  Q 2394 -75 1816 -75  Q 1088 -75 661 373  Q 234 822 234 1631  Q 234 2469 665 2931  Q 1097 3394 1784 3394  Q 2450 3394 2872 2941  Q 3294 2488 3294 1666  Q 3294 1616 3291 1516  L 816 1516  Q 847 969 1125 678  Q 1403 388 1819 388  Q 2128 388 2347 550  Q 2566 713 2694 1069  z M 847 1978  L 2700 1978  Q 2663 2397 2488 2606  Q 2219 2931 1791 2931  Q 1403 2931 1139 2672  Q 875 2413 847 1978  z " transform="scale(0.015625)" />
      </defs>
      <use xlink:href="#ArialMT-70" />
      <use xlink:href="#ArialMT-6f" x="55.615234" />
      <use xlink:href="#ArialMT-73" x="111.230469" />
      <use xlink:href="#ArialMT-69" x="161.230469" />
      <use xlink:href="#ArialMT-74" x="183.447266" />
      <use xlink:href="#ArialMT-69" x="211.230469" />
      <use xlink:href="#ArialMT-76" x="233.447266" />
      <use xlink:href="#ArialMT-65" x="283.447266" />
     </g>
    </g>
    <g id="patch_4">
     <path d="M 8.8 51.95  L 30.8 51.95  L 30.8 44.25  L 8.8 44.25  z " style="fill: #f76e6c; stroke: #444443; stroke-width: 0.4; stroke-linejoin: miter" />
    </g>
    <g id="text_3">
     
     <g style="fill: #444443" transform="translate(34.65 51.95) scale(0.1 -0.1)">
      <defs>
       <path id="ArialMT-6e" d="M 422 0  L 422 3319  L 928 3319  L 928 2847  Q 1294 3394 1984 3394  Q 2284 3394 2536 3286  Q 2788 3178 2913 3003  Q 3038 2828 3088 2588  Q 3119 2431 3119 2041  L 3119 0  L 2556 0  L 2556 2019  Q 2556 2363 2490 2533  Q 2425 2703 2258 2804  Q 2091 2906 1866 2906  Q 1506 2906 1245 2678  Q 984 2450 984 1813  L 984 0  L 422 0  z " transform="scale(0.015625)" />
       <path id="ArialMT-67" d="M 319 -275  L 866 -356  Q 900 -609 1056 -725  Q 1266 -881 1628 -881  Q 2019 -881 2231 -725  Q 2444 -569 2519 -288  Q 2563 -116 2559 434  Q 2191 0 1641 0  Q 956 0 581 494  Q 206 988 206 1678  Q 206 2153 378 2554  Q 550 2956 876 3175  Q 1203 3394 1644 3394  Q 2231 3394 2613 2919  L 2613 3319  L 3131 3319  L 3131 450  Q 3131 -325 2973 -648  Q 2816 -972 2473 -1159  Q 2131 -1347 1631 -1347  Q 1038 -1347 672 -1080  Q 306 -813 319 -275  z M 784 1719  Q 784 1066 1043 766  Q 1303 466 1694 466  Q 2081 466 2343 764  Q 2606 1063 2606 1700  Q 2606 2309 2336 2618  Q 2066 2928 1684 2928  Q 1309 2928 1046 2623  Q 784 2319 784 1719  z " transform="scale(0.015625)" />
       <path id="ArialMT-61" d="M 2588 409  Q 2275 144 1986 34  Q 1697 -75 1366 -75  Q 819 -75 525 192  Q 231 459 231 875  Q 231 1119 342 1320  Q 453 1522 633 1644  Q 813 1766 1038 1828  Q 1203 1872 1538 1913  Q 2219 1994 2541 2106  Q 2544 2222 2544 2253  Q 2544 2597 2384 2738  Q 2169 2928 1744 2928  Q 1347 2928 1158 2789  Q 969 2650 878 2297  L 328 2372  Q 403 2725 575 2942  Q 747 3159 1072 3276  Q 1397 3394 1825 3394  Q 2250 3394 2515 3294  Q 2781 3194 2906 3042  Q 3031 2891 3081 2659  Q 3109 2516 3109 2141  L 3109 1391  Q 3109 606 3145 398  Q 3181 191 3288 0  L 2700 0  Q 2613 175 2588 409  z M 2541 1666  Q 2234 1541 1622 1453  Q 1275 1403 1131 1340  Q 988 1278 909 1158  Q 831 1038 831 891  Q 831 666 1001 516  Q 1172 366 1500 366  Q 1825 366 2078 508  Q 2331 650 2450 897  Q 2541 1088 2541 1459  L 2541 1666  z " transform="scale(0.015625)" />
      </defs>
      <use xlink:href="#ArialMT-6e" />
      <use xlink:href="#ArialMT-65" x="55.615234" />
      <use xlink:href="#ArialMT-67" x="111.230469" />
      <use xlink:href="#ArialMT-61" x="166.845703" />
      <use xlink:href="#ArialMT-74" x="222.460938" />
      <use xlink:href="#ArialMT-69" x="250.244141" />
      <use xlink:href="#ArialMT-76" x="272.460938" />
      <use xlink:href="#ArialMT-65" x="322.460938" />
     </g>
    </g>
   </g>
  </g>
 </g>
</svg></g>
</g>
</svg>